<?xml version="1.0" encoding="utf-8"?>
<!-- Generator: Adobe Illustrator 17.0.0, SVG Export Plug-In . SVG Version: 6.00 Build 0)  -->
<!DOCTYPE svg PUBLIC "-//W3C//DTD SVG 1.1//EN" "http://www.w3.org/Graphics/SVG/1.1/DTD/svg11.dtd">
<svg version="1.1" id="Capa_1" xmlns="http://www.w3.org/2000/svg" xmlns:xlink="http://www.w3.org/1999/xlink" x="0px" y="0px"
	 width="1008px" height="612px" viewBox="0 0 1008 612" enable-background="new 0 0 1008 612" xml:space="preserve">
<g>
	<g>
		<ellipse fill="#DD3635" cx="161.672" cy="299.221" rx="68.856" ry="92.549"/>
		<g>
			<g>
				<path fill="#DD3635" d="M241.342,237.827c-1.249-8.907-2.806-17.751-4.994-26.48c-0.259-1.033-0.597-1.569-1.78-1.788
					c-10.318-1.908-20.715-3.187-31.154-4.183c-8.431-0.804-16.881-1.314-25.34-1.638c-6.012-0.231-12.03-0.369-18.049-0.191
					c-0.191,1.465,0.285,2.871,0.377,4.311c3.518,0.091,7.036,0.176,10.555,0.271c-1.397,3.204,0.183,7.823,4.744,7.824
					c2.837,0.001,5.678,0.001,8.518,0.035c-0.254,0.784-0.356,1.626-0.298,2.454c-0.555-0.203-1.111-0.403-1.675-0.588
					c-6.014-1.972-9.232,6.724-4.172,9.895c16.732,10.486,29.294,25.178,37.519,43.09c0.535,1.165,1.501,1.93,2.623,2.327
					c0.38,0.7,0.803,1.394,1.269,2.084c-0.163,6.104,0.01,12.21-0.237,18.312c-0.268,6.617-2.053,12.734-4.075,18.991
					c-4.164,12.889-8.726,25.827-7.748,39.584c0.302,4.255,4.016,6.118,7.424,4.839c-1.049,1.168-2.125,2.315-3.245,3.429
					c-4.187,4.581-8.879,8.581-13.97,12.119c-5.817,4.386-12.043,8.086-18.653,11.146c-5.947,3.161-12.246,5.472-18.579,7.699
					c-0.712,2.386-0.129,4.839-0.374,7.249c0.291-0.025,0.603,0.01,0.87-0.082c20.104-6.918,38.261-17.074,53.249-32.373
					c12.569-12.831,21.753-27.714,26.236-45.22c2.946-11.503,3.342-23.344,3.703-35.135
					C244.579,269.745,243.575,253.747,241.342,237.827z"/>
				<path fill="#DD3635" d="M160.404,391.367c-0.229-0.056-0.458-0.112-0.687-0.167c-11.804-3.772-22.901-9.038-33.214-15.908
					c-5.907-3.934-11.352-8.306-16.274-13.169c4.451,2.46,11.015-2.237,7.472-7.15c-5.041-6.991-12.15-12.318-16.249-19.963
					c-4.917-9.169-6.008-19.629-7.211-29.77c-2.665-22.466-0.92-45.227-0.871-67.776c0.01-4.585-4.654-6.159-7.864-4.723
					c0.828-5.866,1.805-11.711,2.967-17.529c0.189-0.945,0.726-1.233,1.464-1.395c-0.993,2.722-0.106,5.958,3.543,6.584
					c3.028,0.519,6.059,1,9.094,1.428c0.326,0.08,0.669,0.127,1.027,0.142c1.912,0.26,3.826,0.499,5.743,0.701
					c-0.377,0.318-0.734,0.613-1.01,0.876c-2.471,2.344-4.229,5.317-3.973,8.81c0.174,2.371,1.518,4.621,3.975,5.221
					c7.973,1.945,18.905-5.49,18.526-14.243c3.385-0.255,6.63-0.978,9.804-2.345c3.282-1.414,6.133-3.032,9.785-3.181
					c5.527-0.226,6.689-7.004,3.407-9.718c3.513-0.101,7.027-0.182,10.543-0.234c-0.092-1.44-0.568-2.846-0.377-4.311
					c-0.287-0.033-0.574-0.096-0.861-0.095c-15.091,0.035-30.148,0.712-45.167,2.242c-9.421,0.96-18.802,2.164-28.123,3.851
					c-1.242,0.225-1.632,0.775-1.903,1.878c-1.934,7.862-3.42,15.806-4.605,23.813c-1.694,11.446-2.777,22.946-3.089,34.513
					c-0.24,8.885-0.202,17.77,0.379,26.643c0.405,6.182,0.815,12.379,1.914,18.477c2.835,15.736,9.753,29.63,19.563,42.136
					c11.85,15.106,26.823,26.265,44.056,34.509c5.784,2.767,11.67,5.294,17.838,7.103
					C160.274,396.206,159.691,393.753,160.404,391.367z M102.618,353.659c1.705,1.831,3.384,3.697,4.921,5.699
					C105.826,357.527,104.186,355.626,102.618,353.659z"/>
			</g>
		</g>
		
			<rect x="85.061" y="213.749" transform="matrix(1 0.0053 -0.0053 1 1.4202 -0.5197)" fill="#DD3635" width="28.408" height="110.631"/>
		<path fill="#DD3635" d="M115.378,357.338c-0.56-0.731-1.098-1.464-1.736-2.125c-0.682-0.707-1.489-1.282-2.266-1.877
			c-1.085-0.832-2.918-0.891-4.172-0.546c-1.353,0.372-2.527,1.278-3.236,2.488c-0.732,1.25-0.93,2.774-0.546,4.172l0.546,1.293
			c0.372,0.629,0.846,1.155,1.416,1.586c0.492,0.435,0.957,0.898,1.369,1.413c0.04,0.052,0.081,0.104,0.121,0.157
			c0.676,0.671,1.472,1.135,2.389,1.392c1.397,0.384,2.921,0.187,4.172-0.546c1.21-0.709,2.116-1.882,2.488-3.236
			C116.268,360.256,116.21,358.423,115.378,357.338z"/>
		<path fill="#DD3635" d="M213.161,351.075c-6.983,0-6.983,10.828,0,10.828C220.143,361.903,220.143,351.075,213.161,351.075z"/>
		<path fill="#DD3635" d="M159.803,315.358c-1.563,0.357-3.115,0.681-4.686,0.905c-0.318,0.723-0.502,1.519-0.502,2.36
			c0,3.244,2.63,5.873,5.873,5.873c3.244,0,5.873-2.63,5.873-5.873c0-1.087-0.316-2.093-0.831-2.966
			C163.635,315.259,161.723,314.92,159.803,315.358z"/>
	</g>
	<g>
		<path fill="#DD3635" d="M102.522,353.678c0.378,0.189,0.63,0.504,0.882,0.882"/>
	</g>
</g>
<text transform="matrix(1 0 0 1 266.5709 321.0539)" fill="#384049" font-family="'Biryani-Bold'" font-size="103.0122">CBTIS 226</text>
<text transform="matrix(1 0 0 1 269.611 360.0266)" fill="#384049" font-family="'Biryani-Regular'" font-size="22.3969">Centro de Bachillerato Tecnológico, Industrial y de Servicios</text>
<g>
	<g>
		<path fill="#FFFFFF" d="M228.18,291.409c0.497-9.375,0.269-18.738-0.297-28.104c-0.755-12.497-2.349-24.878-4.773-37.159
			c-0.242-1.227-0.811-1.696-1.985-1.902c-15.957-2.8-32.045-4.254-48.227-4.756c-4.238-0.131-8.478-0.223-12.717-0.333
			c-0.081-1.265-0.499-2.501-0.331-3.788c5.289-0.156,10.578-0.035,15.862,0.168c7.434,0.286,14.861,0.733,22.27,1.44
			c9.174,0.875,18.311,1.999,27.379,3.676c1.039,0.192,1.337,0.663,1.564,1.571c1.923,7.672,3.291,15.443,4.389,23.271
			c1.962,13.991,2.844,28.05,2.413,42.165c-0.317,10.362-0.665,20.768-3.254,30.877c-3.94,15.385-12.01,28.464-23.057,39.74
			c-13.171,13.445-29.129,22.371-46.796,28.45c-0.235,0.081-0.509,0.051-0.765,0.072c0.215-2.118-0.297-4.274,0.329-6.371
			c5.566-1.958,11.102-3.989,16.328-6.766c5.808-2.689,11.281-5.94,16.392-9.795c4.475-3.11,8.598-6.624,12.278-10.651
			c4.715-4.69,8.721-9.918,11.956-15.733c0.455-0.755,0.948-1.489,1.358-2.267c2.631-4.997,4.946-10.121,6.189-15.666
			c0.063-0.083,0.158-0.156,0.183-0.249c1.776-6.492,2.2-13.176,2.82-19.833"/>
		<path fill="#FFFFFF" d="M92.296,300.668c0.236,2.71,0.572,5.411,0.828,8.12c0.895,9.466,3.854,18.285,8.374,26.601
			c6.954,12.797,16.838,22.883,28.891,30.912c9.063,6.037,18.815,10.665,29.189,13.98c0.201,0.049,0.402,0.098,0.604,0.147
			c-0.626,2.097-0.114,4.253-0.329,6.371c-5.421-1.59-10.594-3.811-15.677-6.242c-15.145-7.245-28.304-17.052-38.718-30.327
			c-8.621-10.99-14.701-23.2-17.193-37.03c-0.966-5.359-1.326-10.806-1.682-16.238c-0.511-7.797-0.544-15.606-0.333-23.414
			c0.274-10.165,1.226-20.271,2.714-30.331c1.041-7.037,2.347-14.018,4.047-20.928c0.239-0.97,0.581-1.453,1.673-1.651
			c8.192-1.483,16.436-2.541,24.715-3.385c13.199-1.345,26.431-1.939,39.693-1.97c0.252-0.001,0.505,0.054,0.757,0.083
			c-0.169,1.287,0.25,2.523,0.331,3.788c-15.498,0.23-30.968,0.92-46.362,2.856c-5.136,0.646-10.251,1.417-15.344,2.338
			c-0.763,0.138-1.323,0.349-1.507,1.271c-1.864,9.339-3.235,18.747-4.129,28.228c-0.501,5.317-0.85,10.641-1.059,15.977
			c-0.283,7.226-0.317,14.448,0.002,21.674"/>
	</g>
	<path fill="#FFFFFF" d="M109.846,312.922c-0.001,0.007-0.003,0.014-0.004,0.021c-0.008,0.051,0,0.096,0.014,0.137
		c0.096,1.123,0.247,2.244,0.46,3.361c0.149,0.784,0.328,1.563,0.519,2.34c-0.862-1.476-1.943-2.918-2.956-4.202
		c-1.183-1.499-2.562-2.668-4.434-3.158c-0.43-0.113-0.773,0.274-0.687,0.687c0.902,4.319,4.174,8.092,8.489,9.264
		c0.118,0.032,0.214,0.011,0.286-0.038c1.317,4.306,3.235,8.466,5.543,12.37c-0.932-0.765-1.924-1.453-2.983-2.048
		c-1.421-0.798-3.415-2.026-5.077-1.482c-0.283,0.093-0.498,0.397-0.398,0.702c1.419,4.365,5.882,7.171,10.397,5.96
		c0.001,0,0.001,0,0.001,0c0.01,0.001,0.018-0.002,0.028-0.002c0.989,1.482,2.029,2.92,3.11,4.304
		c1.712,2.192,3.631,4.296,5.736,6.187c-2.629-1.333-5.965-1.645-8.71-1.377c-0.457,0.044-0.755,0.582-0.391,0.944
		c2.995,2.986,7.568,4.183,11.566,2.622c0.044-0.017,0.079-0.04,0.108-0.068c3.818,2.88,8.161,4.99,12.96,5.671
		c0.349,0.049,0.513-0.453,0.15-0.545c-2.039-0.516-3.98-1.201-5.829-2.035c-0.018-0.053-0.046-0.105-0.098-0.151
		c-0.01-0.009-0.02-0.018-0.03-0.027c-0.098-3.317-2.672-6.765-5.002-8.925c-0.308-0.285-0.988-0.116-0.927,0.384
		c0.33,2.682,1.426,5.308,3.25,7.295c-3.115-1.755-5.941-3.958-8.487-6.531c0.046-0.074,0.08-0.161,0.081-0.268
		c0.022-2.222-0.293-4.402-1.065-6.494c-0.558-1.511-1.276-3.494-2.752-4.295c-0.331-0.18-0.739,0.045-0.745,0.427
		c-0.042,2.622,0.509,5.231,1.695,7.542c-0.423-0.514-0.839-1.034-1.244-1.569c-2.585-3.416-4.923-7.122-6.829-11.029
		c0.023-0.058,0.037-0.122,0.022-0.198c-0.014-0.073-0.028-0.145-0.042-0.218c0.081-0.028,0.158-0.081,0.219-0.171
		c2.39-3.55,2.012-8.845,0.933-12.781c-0.127-0.463-0.719-0.492-0.969-0.127c-2.203,3.223-2.228,6.902-1.51,10.523
		c-1.262-3.012-2.252-6.126-2.889-9.303c-0.27-1.348-0.45-2.685-0.553-4.012c0.078-0.001,0.16-0.016,0.246-0.068
		c3.535-2.137,5.504-6.889,6.056-10.8c0.072-0.507-0.479-0.93-0.902-0.525c-2.457,2.348-4.381,5.168-5.499,8.33"/>
	<g>
		<path fill="#FFFFFF" d="M142.14,325.867c0.015,0.149,0.037,0.363,0.063,0.618c0.028,0.256,0.078,0.552,0.126,0.869
			c0.053,0.317,0.126,0.652,0.196,0.987c0.084,0.332,0.162,0.666,0.254,0.973c0.095,0.306,0.177,0.595,0.265,0.836
			c0.087,0.241,0.16,0.442,0.211,0.583c0.025,0.071,0.048,0.125,0.063,0.162c0.015,0.037,0.023,0.057,0.023,0.057
			c0.111,0.268,0.281,0.486,0.475,0.618c0.198,0.131,0.413,0.18,0.605,0.125c0,0,0.423-0.052,1.046-0.155
			c0.604-0.1,1.402-0.26,2.185-0.454c0.778,1.421,1.798,2.706,3.02,3.789c-0.365,0.722-0.692,1.458-0.926,2.029
			c-0.243,0.59-0.385,0.988-0.385,0.988c-0.096,0.175-0.095,0.395-0.008,0.615c0.043,0.11,0.107,0.22,0.19,0.325
			c0.085,0.101,0.189,0.195,0.309,0.277c0,0,0.071,0.048,0.195,0.133c0.123,0.086,0.303,0.202,0.523,0.335
			c0.219,0.135,0.475,0.292,0.759,0.443c0.141,0.077,0.287,0.156,0.436,0.237c0.152,0.074,0.306,0.149,0.46,0.225
			c0.616,0.301,1.254,0.553,1.737,0.724c0.24,0.09,0.444,0.154,0.587,0.198c0.143,0.044,0.224,0.069,0.224,0.069
			c0.276,0.089,0.553,0.084,0.778,0.012c0.225-0.07,0.396-0.206,0.473-0.391c0,0,0.222-0.359,0.531-0.917
			c0.3-0.539,0.671-1.256,1.008-1.988c1.646,0.289,3.282,0.277,4.848,0.002c0.338,0.734,0.711,1.449,1.012,1.987
			c0.311,0.558,0.534,0.916,0.534,0.916c0.078,0.184,0.25,0.32,0.476,0.39c0.113,0.035,0.239,0.054,0.372,0.053
			c0.132-0.004,0.27-0.026,0.409-0.069c0,0,0.082-0.025,0.225-0.069c0.144-0.042,0.346-0.113,0.587-0.201
			c0.121-0.044,0.251-0.091,0.389-0.142c0.137-0.053,0.28-0.114,0.428-0.175c0.148-0.062,0.301-0.124,0.455-0.193
			c0.152-0.072,0.307-0.144,0.461-0.217c0.311-0.142,0.608-0.311,0.892-0.46c0.281-0.153,0.535-0.312,0.755-0.442
			c0.219-0.132,0.394-0.255,0.52-0.336c0.124-0.083,0.195-0.13,0.195-0.13c0.477-0.333,0.684-0.863,0.487-1.217
			c0,0-0.145-0.402-0.385-0.988c-0.12-0.293-0.265-0.632-0.426-0.989c-0.153-0.336-0.323-0.69-0.498-1.039
			c1.205-1.065,2.235-2.342,3.025-3.791c0.379,0.093,0.761,0.179,1.123,0.253c0.387,0.079,0.747,0.143,1.06,0.194
			c0.625,0.102,1.049,0.153,1.049,0.153c0.191,0.053,0.413,0.007,0.604-0.128c0.192-0.134,0.366-0.352,0.477-0.62
			c0,0,0.118-0.321,0.294-0.803c0.081-0.243,0.168-0.529,0.261-0.835c0.087-0.307,0.167-0.638,0.25-0.968
			c0.068-0.334,0.139-0.667,0.194-0.981c0.048-0.316,0.094-0.612,0.126-0.866c0.05-0.511,0.083-0.851,0.083-0.851
			c0.016-0.29-0.046-0.561-0.161-0.765c-0.113-0.205-0.293-0.343-0.488-0.377c0,0-0.404-0.138-1.012-0.316
			c-0.304-0.089-0.657-0.188-1.039-0.284c-0.359-0.09-0.74-0.178-1.122-0.258c-0.054-1.069-0.243-2.113-0.532-3.122
			c-1.257,0.541-2.646,0.797-4.001,0.692c0.593,1.675,0.743,3.529,0.319,5.39c-1.192,5.233-6.401,8.508-11.634,7.316
			s-8.508-6.401-7.316-11.634c0.048-0.21,0.112-0.41,0.173-0.613c-0.496,0.044-0.99,0.097-1.493,0.117
			c-1.249,0.05-2.327-0.169-3.245-0.578c-0.003,0.011-0.006,0.021-0.009,0.032c-0.184,0.805-0.293,1.61-0.335,2.408
			c-0.79,0.165-1.581,0.367-2.164,0.54c-0.607,0.178-1.011,0.315-1.011,0.315c-0.197,0.034-0.371,0.172-0.491,0.377
			c-0.115,0.204-0.176,0.476-0.159,0.766C142.121,325.632,142.124,325.718,142.14,325.867z"/>
		<path fill="#FFFFFF" d="M168.631,321.086c-3.147-0.617-6.332-1.561-9.536-0.83c-2.82,0.643-5.611,1.216-8.488,1.432
			c-0.051,0.179-0.11,0.355-0.152,0.539c-1.241,5.446,2.168,10.868,7.614,12.109c5.446,1.241,10.868-2.168,12.109-7.614
			c0.433-1.9,0.289-3.794-0.299-5.511C169.46,321.199,169.042,321.166,168.631,321.086z"/>
	</g>
	<path fill="#FFFFFF" d="M211.468,312.922c0.001,0.007,0.003,0.014,0.004,0.021c0.008,0.051,0,0.096-0.014,0.137
		c-0.098,1.123-0.25,2.244-0.466,3.361c-0.151,0.784-0.332,1.563-0.526,2.34c0.873-1.476,1.968-2.918,2.995-4.202
		c1.199-1.499,2.596-2.668,4.492-3.158c0.436-0.113,0.783,0.274,0.696,0.687c-0.913,4.319-4.229,8.092-8.6,9.264
		c-0.12,0.032-0.217,0.011-0.29-0.038c-1.334,4.306-3.278,8.466-5.616,12.37c0.944-0.765,1.95-1.453,3.022-2.048
		c1.439-0.798,3.459-2.026,5.144-1.482c0.286,0.093,0.504,0.397,0.404,0.702c-1.438,4.365-5.96,7.171-10.534,5.96l-0.001,0
		c-0.011,0.001-0.018-0.002-0.028-0.002c-1.002,1.482-2.055,2.92-3.15,4.304c-1.734,2.192-3.678,4.296-5.811,6.187
		c2.663-1.333,6.043-1.645,8.824-1.377c0.463,0.044,0.764,0.582,0.396,0.944c-3.035,2.986-7.667,4.183-11.718,2.622
		c-0.044-0.017-0.08-0.04-0.109-0.068c-3.869,2.88-8.268,4.99-13.13,5.671c-0.353,0.049-0.52-0.453-0.152-0.545
		c2.065-0.516,4.032-1.201,5.906-2.035c0.018-0.053,0.046-0.105,0.099-0.151c0.01-0.009,0.02-0.018,0.031-0.027
		c0.099-3.317,2.708-6.765,5.068-8.925c0.312-0.285,1.001-0.116,0.939,0.384c-0.335,2.682-1.445,5.308-3.292,7.295
		c3.156-1.755,6.019-3.958,8.599-6.531c-0.047-0.074-0.081-0.161-0.082-0.268c-0.022-2.222,0.297-4.402,1.079-6.494
		c0.565-1.511,1.293-3.494,2.788-4.295c0.336-0.18,0.749,0.045,0.755,0.427c0.043,2.622-0.515,5.231-1.718,7.542
		c0.428-0.514,0.85-1.034,1.26-1.569c2.619-3.416,4.988-7.122,6.918-11.029c-0.024-0.058-0.037-0.122-0.022-0.198
		c0.014-0.073,0.028-0.145,0.043-0.218c-0.082-0.028-0.16-0.081-0.222-0.171c-2.422-3.55-2.039-8.845-0.945-12.781
		c0.129-0.463,0.728-0.492,0.981-0.127c2.231,3.223,2.257,6.902,1.529,10.523c1.278-3.012,2.281-6.126,2.927-9.303
		c0.274-1.348,0.456-2.685,0.561-4.012c-0.079-0.001-0.162-0.016-0.249-0.068c-3.581-2.137-5.576-6.889-6.135-10.8
		c-0.073-0.507,0.485-0.93,0.914-0.525c2.49,2.348,4.438,5.168,5.571,8.33"/>
	<g>
		<path fill="#FFFFFF" d="M193.128,318.158c-1.276-3.155-0.19-6.706-0.262-9.987c-0.079-3.619,0.536-6.993,0.157-10.606
			c-0.032-0.302-0.034-0.585-0.023-0.86c-0.446-4.324-0.952-4.373-6.38-4.771c-0.267-0.02-0.534-0.044-0.801-0.065
			c-8.585-0.667-17.086-3.929-25.805-0.822c-0.409,0.146-1.013-0.255-1.525-0.404c-3.94-1.147-7.892-0.997-11.939-0.501
			c-5.573,0.683-11.092,2.072-16.745,1.809c-2.507-0.117-3.182,0.685-3.167,3.153c0.006,0.928,0.31,1.998,0.28,2.993
			c0.279,0.656,0.45,1.417,0.443,2.317c-0.018,2.439-0.179,5.134-0.354,7.565c-0.198,2.75-0.165,5.507-0.357,8.253
			c0.026,0.279,0.051,0.547,0.078,0.833c0.042,0.453,0.034,0.875-0.017,1.268c0.06,0.468,0.009,0.99,0.023,1.527
			c0.163,6.329,0.171,6.449,6.603,5.856c9.002-0.83,17.902-3.49,27.055-1.339c0.501,0.118,1.104,0.083,1.593-0.082
			c4.09-1.374,8.181-0.837,12.31-0.196c4.627,0.718,9.279,1.27,13.921,1.895c4.277,0.855,5.479-1.038,5.014-5.048
			C193.127,320.066,192.821,319.042,193.128,318.158z M157.591,298.152c-0.213,3.063-0.049,6.151-0.049,9.229
			c-0.16-0.001-0.32-0.001-0.48-0.002c0,3.213-0.005,6.425,0.003,9.638c0.003,1.249,0.111,2.483-1.803,2.297
			c-6.893-0.669-13.582,1.093-20.352,1.839c-2.303,0.254-3.487,0.059-3.318-2.746c0.394-6.544,0.502-13.104,0.77-19.656
			c0.047-1.153-0.071-2.538,1.71-2.639c6.671-0.381,13.19-2.269,19.951-1.899C156.742,294.361,157.783,295.394,157.591,298.152z
			 M182.737,320.921c-5.964-0.79-11.877-2.158-17.943-1.596c-1.824,0.169-1.966-0.803-2.012-2.111
			c-0.23-6.546-0.369-13.098-0.75-19.636c-0.153-2.627,1.14-3.128,3.299-3.308c6.896-0.573,13.541,1.466,20.343,1.841
			c1.684,0.093,1.603,1.461,1.652,2.69c0.166,4.14,0.358,8.28,0.586,13.473c0,0.689-0.015,2.428,0.003,4.168
			C187.968,321.516,187.96,321.613,182.737,320.921z"/>
		<path fill="#FFFFFF" d="M182.072,310.11c-1.813-1.49-6.004,1.503-6.783-2.995c-0.288-1.664,1.371-1.702,2.195-1.263
			c2.254,1.199,6.051-1.185,6.972,2.872C184.806,310.259,183.636,310.434,182.072,310.11z"/>
		<path fill="#FFFFFF" d="M170.726,316.082c-0.66-0.056-1.319-0.125-1.98-0.17c-1.282-0.088-2.736,0.234-2.715-1.892
			c0.026-2.526,1.846-1.747,3.116-1.752c1.311-0.006,2.623,0.301,3.936,0.464c1.289,0.16,2.753-0.002,2.587,2.077
			c-0.186,2.315-1.825,1.287-2.96,1.373C172.055,316.232,171.388,316.12,170.726,316.082z"/>
		<path fill="#FFFFFF" d="M170.625,301.067c-1.243,0-2.046-0.041-2.843,0.009c-1.442,0.091-2.217-0.389-2.285-1.99
			c-0.077-1.824,1.188-1.378,2.15-1.449c0.796-0.058,1.61-0.091,2.399,0.005c1.553,0.188,3.9-0.665,3.75,2.182
			C173.637,302.802,171.475,300.895,170.625,301.067z"/>
		<path fill="#FFFFFF" d="M181.199,302.588c-1.632-0.861-4.714,0.967-5.313-2.462c-0.342-1.957,1.34-2.001,2.332-1.51
			c1.886,0.935,5.281-1.155,5.694,2.629C184.145,303.377,182.45,302.503,181.199,302.588z"/>
		<path fill="#FFFFFF" d="M169.015,304.842c1.408,0.653,3.998-0.955,4.225,2.19c0.134,1.856-1.181,2.137-2.339,1.585
			c-1.646-0.783-4.748,1.311-4.936-2.244C165.845,304.087,167.806,305.151,169.015,304.842z"/>
		<path fill="#FFFFFF" d="M180.661,313.708c1.268,0.65,3.849-0.87,3.989,2.297c0.084,1.904-1.121,2.064-2.261,1.545
			c-1.587-0.723-4.435,0.844-4.695-2.301C177.506,312.983,179.252,313.7,180.661,313.708z"/>
		<path fill="#FFFFFF" d="M151.023,304.818c0.893,0.623,2.552-1.058,2.9,1.343c0.389,2.686-1.455,2.081-2.639,2.277
			c-2.01,0.333-4.043,0.47-6.051,0.812c-0.961,0.164-1.851,0.495-1.947-1.158c-0.078-1.352,0.234-2.282,1.61-2.417
			C146.916,305.477,148.924,305.12,151.023,304.818z"/>
		<path fill="#FFFFFF" d="M148.647,316.182c-1.413-0.368-3.08,0.963-4.056-0.661c-0.401-0.667-0.576-2.125,0.496-2.423
			c2.542-0.707,5.199-1.251,7.831-0.682c1.083,0.234,1.062,1.627,0.659,2.378C152.44,316.908,150.185,315.424,148.647,316.182z"/>
		<path fill="#FFFFFF" d="M146.618,301.385c-1.066,0.232-2.166,0.467-2.18-1.245c-0.01-1.253,0.353-2.13,1.679-2.22
			c2.124-0.145,4.255-0.181,6.383-0.274c1.127-0.049,1.748,0.349,1.665,1.602c-0.07,1.046-0.319,1.766-1.578,1.802
			C150.596,301.105,148.607,301.268,146.618,301.385z"/>
		<path fill="#FFFFFF" d="M137.372,317.625c-1.515,0.175-2.539,0.047-2.359-1.518c0.384-3.341,3.173-1.948,4.971-2.431
			c1.173-0.315,2.651-0.418,2.412,1.455C141.953,318.608,138.639,316.404,137.372,317.625z"/>
		<path fill="#FFFFFF" d="M137.961,302.597c-1.526,0.332-2.468,0.221-2.377-1.356c0.2-3.466,3.238-1.654,4.838-2.519
			c0.998-0.539,2.111-0.157,2.026,1.412C142.256,303.661,139.277,301.908,137.961,302.597z"/>
		<path fill="#FFFFFF" d="M141.428,308.124c0.306,2.035-2.085,1.868-3.898,2.135c-2.167,0.318-2.005-0.663-2.09-1.626
			c-0.134-1.52,0.896-2.114,3.089-2.138C140.318,306.475,141.725,306.606,141.428,308.124z"/>
	</g>
	<circle fill="#DD3635" cx="159.98" cy="325.29" r="5.036"/>
	<path fill="#FFFFFF" d="M211.527,312.984c0.078-0.001,0.159-0.016,0.246-0.068c3.535-2.137,5.504-6.889,6.056-10.8
		c0.072-0.507-0.479-0.93-0.902-0.525c-2.457,2.348-4.381,5.168-5.499,8.33l-0.857,3.374c-0.001,0.007-0.003,0.014-0.004,0.021
		c-0.002,0.014,0.004,0.024,0.004,0.037c0.075-0.002,0.15-0.01,0.226-0.012"/>
	<path fill="#FFFFFF" d="M109.623,312.629c0.088,0.052,0.17,0.067,0.249,0.068c-0.009,0.109-0.026,0.218-0.035,0.327
		c0.281-0.004,0.561,0.005,0.84,0.037c0.054,0.006,0.11-0.001,0.165,0.002c0-0.012,0.006-0.022,0.004-0.035
		c-0.001-0.007-0.003-0.014-0.004-0.021l-0.868-3.374c-1.133-3.162-3.081-5.981-5.571-8.33c-0.429-0.405-0.987,0.018-0.914,0.525
		C104.047,305.74,106.042,310.492,109.623,312.629z"/>
	<polygon fill="#FFFFFF" points="159.881,275.971 89.261,277.746 89.261,271.626 159.881,272.81 	"/>
	<polygon fill="#FFFFFF" points="159.762,272.854 230.358,271.079 230.358,277.197 159.762,276.013 	"/>
</g>
<circle fill="#FFFFFF" cx="159.509" cy="249.652" r="9.992"/>
<g>
	<g>
		<g>
			<path fill="#FFFFFF" stroke="#FFFFFF" stroke-miterlimit="10" d="M211.927,265.542c-0.232,0.089-0.463,0.171-0.672,0.23
				c-0.998,0.373-2.047,0.747-3.16,1.084c-0.222,0.072-0.448,0.136-0.667,0.204c-0.289,0.105-0.538,0.196-0.849,0.291
				c-0.484,0.149-0.957,0.275-1.378,0.362c-0.214,0.043-0.449,0.093-0.777,0.145c-0.321,0.058-0.68,0.113-1.009,0.167
				c-0.327,0.049-0.667,0.104-0.948,0.14c0,0-0.212,0.027-0.423,0.054c-0.211,0.028-0.425,0.047-0.425,0.047
				s-0.43,0.048-0.864,0.077c-0.216,0.019-0.434,0.029-0.597,0.038c-0.163,0.009-0.272,0.014-0.272,0.014
				c-0.585,0.025-1.166,0.037-1.804,0.031c-0.313,0-0.639-0.006-0.944-0.015c0,0-0.209-0.002-0.417-0.014
				c-0.208-0.009-0.417-0.019-0.417-0.019c-0.538-0.031-1.042-0.077-1.696-0.152c-0.617-0.07-1.312-0.162-1.801-0.239
				c-0.501-0.079-1.022-0.182-1.552-0.299c-0.532-0.125-0.966-0.235-1.527-0.405c-0.287-0.087-0.581-0.177-0.871-0.265
				c-0.288-0.092-0.571-0.184-0.841-0.27c0,0-0.101-0.031-0.25-0.084c-0.15-0.051-0.349-0.119-0.549-0.188
				c-0.2-0.067-0.398-0.138-0.546-0.193c-0.148-0.054-0.247-0.09-0.247-0.09s-0.386-0.137-0.766-0.283
				c-0.381-0.145-0.763-0.29-0.763-0.29c-0.52-0.2-1.088-0.419-1.635-0.629c-0.543-0.205-0.982-0.372-1.489-0.563
				c-0.489-0.19-1.059-0.402-1.604-0.599c-0.565-0.195-1.057-0.366-1.591-0.536c-0.266-0.089-0.532-0.173-0.797-0.251
				c-0.265-0.078-0.518-0.163-0.774-0.233l-0.806-0.23c-0.295-0.08-0.617-0.154-0.926-0.228c-0.31-0.078-0.625-0.126-0.928-0.187
				c-0.303-0.062-0.61-0.107-0.922-0.15c0,0-0.452-0.067-0.911-0.108c-0.228-0.024-0.457-0.048-0.63-0.057
				c-0.172-0.012-0.287-0.02-0.287-0.02c-0.292-0.024-0.596-0.037-0.894-0.046c-0.298-0.014-0.592-0.022-0.866-0.021
				c-0.558-0.006-1.078-0.012-1.784,0.017c-0.338,0.016-0.671,0.033-0.994,0.068c-0.324,0.029-0.639,0.062-0.942,0.108
				c-0.309,0.039-0.625,0.087-0.929,0.147c-0.306,0.054-0.604,0.114-0.876,0.179c-0.275,0.061-0.552,0.121-0.826,0.194
				c-0.275,0.07-0.555,0.137-0.828,0.221c-0.55,0.156-1.076,0.322-1.615,0.514c-0.279,0.104-0.564,0.201-0.827,0.32
				c-0.144,0.099-0.295,0.198-0.45,0.298c0.454-0.155,0.9-0.309,1.363-0.435c0.54-0.152,1.115-0.3,1.686-0.427
				c0.566-0.128,1.154-0.244,1.753-0.347c0.599-0.105,1.128-0.176,1.697-0.231c0.287-0.033,0.569-0.052,0.844-0.068
				c0.275-0.02,0.543-0.031,0.806-0.031c0.248-0.002,0.539-0.008,0.848,0.002c0.309,0.004,0.635,0.008,0.955,0.023
				c0.162,0.005,0.319,0.01,0.473,0.015c0.154,0.009,0.304,0.018,0.454,0.027c0.15,0.008,0.298,0.017,0.447,0.025
				c0.148,0.013,0.297,0.027,0.448,0.04c0,0,0.435,0.03,0.864,0.088c0.432,0.046,0.855,0.117,0.855,0.117
				c0.274,0.042,0.553,0.087,0.823,0.146c0.27,0.056,0.541,0.104,0.792,0.166l0.757,0.192c0.259,0.067,0.545,0.159,0.837,0.241
				c0.295,0.081,0.575,0.175,0.855,0.261c0.28,0.084,0.552,0.173,0.818,0.265c0.541,0.177,1.103,0.379,1.597,0.554
				c0.503,0.187,0.975,0.366,1.515,0.581c0.53,0.206,1.126,0.437,1.618,0.628c0.486,0.191,0.95,0.373,1.463,0.575
				c0,0,0.396,0.153,0.792,0.306c0.394,0.154,0.8,0.3,0.8,0.3s0.098,0.036,0.244,0.09c0.146,0.055,0.343,0.126,0.543,0.194
				c0.199,0.069,0.398,0.138,0.547,0.19c0.148,0.053,0.25,0.085,0.25,0.085c0.538,0.174,1.014,0.334,1.526,0.489
				c0.515,0.171,1.205,0.353,1.806,0.496c0.61,0.137,1.243,0.271,1.915,0.37c0.683,0.104,1.158,0.156,1.722,0.224
				c0.526,0.059,1.214,0.131,1.875,0.163c0,0,0.24,0.011,0.48,0.023c0.241,0.006,0.481,0.012,0.481,0.012
				c0.292,0.01,0.563,0.007,0.848,0.011c0.557,0.004,1.176-0.006,1.785-0.031c0,0,0.115-0.006,0.288-0.015
				c0.173-0.009,0.403-0.019,0.633-0.039c0.46-0.03,0.917-0.08,0.917-0.08s0.232-0.021,0.461-0.05
				c0.23-0.029,0.459-0.058,0.459-0.058c0.308-0.039,0.546-0.081,0.8-0.115c0.249-0.038,0.467-0.071,0.718-0.109
				c0.248-0.037,0.583-0.093,0.948-0.161c0.731-0.144,1.384-0.32,1.992-0.507c0.607-0.189,1.329-0.462,1.752-0.654
				c0.213-0.088,0.414-0.177,0.621-0.271c0.211-0.091,0.426-0.189,0.661-0.301c0.651-0.399,1.235-0.824,1.751-1.268L211.927,265.542
				z"/>
		</g>
		<g>
			<path fill="#FFFFFF" stroke="#FFFFFF" stroke-miterlimit="10" d="M160.138,264.082c-0.193,0.101-0.355,0.23-0.495,0.351
				c-0.288,0.336-0.37,0.776-0.237,1.205c0.123,0.431,0.502,0.861,1.015,1.185c0.211,0.131,0.439,0.246,0.673,0.349
				c0.339,0.119,0.639,0.204,1.001,0.292c0.567,0.133,1.118,0.226,1.591,0.284c0.241,0.028,0.504,0.083,0.87,0.111
				c0.182,0.016,0.372,0.033,0.564,0.05c0.192,0.014,0.386,0.017,0.571,0.023c0.368,0.017,0.749,0.007,1.06,0.001
				c0,0,0.236,0,0.468-0.014c0.233-0.011,0.465-0.022,0.465-0.022s0.118-0.006,0.294-0.014c0.175-0.012,0.407-0.029,0.64-0.045
				c0.466-0.033,0.925-0.078,0.925-0.078c0.618-0.058,1.224-0.121,1.882-0.197c0.322-0.038,0.657-0.078,0.97-0.116l0.852-0.1
				c0.549-0.059,1.068-0.104,1.74-0.152c0.316-0.02,0.654-0.041,0.976-0.061c0.321-0.012,0.626-0.023,0.879-0.033
				c0.258,0.002,0.524,0.003,0.795,0.005c0.27,0.008,0.545,0.028,0.824,0.043c0.562,0.045,1.025,0.092,1.631,0.191
				c0.311,0.044,0.627,0.101,0.938,0.157c0.313,0.051,0.618,0.114,0.91,0.171c0,0,0.436,0.083,0.868,0.18
				c0.434,0.091,0.865,0.196,0.865,0.196s0.42,0.096,0.839,0.202c0.419,0.105,0.838,0.21,0.838,0.21
				c0.569,0.146,1.195,0.307,1.804,0.452c0.602,0.143,1.088,0.258,1.649,0.391c0.275,0.063,0.57,0.13,0.871,0.199
				c0.306,0.063,0.617,0.127,0.921,0.19c0.315,0.056,0.611,0.109,0.9,0.161c0.291,0.049,0.581,0.088,0.876,0.135
				c0.297,0.049,0.6,0.073,0.891,0.111c0.293,0.034,0.578,0.072,0.861,0.091l0.89,0.077c0.325,0.018,0.671,0.03,1.005,0.042
				c0.338,0.017,0.664,0.002,0.986,0.001c0.322-0.003,0.64-0.008,0.961-0.033c0,0,0.468-0.026,0.932-0.063
				c0.462-0.048,0.925-0.097,0.925-0.097c0.296-0.025,0.594-0.081,0.89-0.119c0.296-0.043,0.588-0.079,0.854-0.132
				c0.272-0.05,0.537-0.094,0.82-0.141c0.282-0.049,0.576-0.116,0.917-0.186c0.329-0.065,0.641-0.151,0.946-0.235
				c0.305-0.085,0.606-0.163,0.884-0.261c0.285-0.094,0.578-0.191,0.859-0.293c0.273-0.111,0.542-0.22,0.792-0.321
				c0.254-0.097,0.491-0.215,0.739-0.325c0.244-0.113,0.501-0.218,0.736-0.347c0.24-0.122,0.477-0.243,0.715-0.365
				c0.227-0.13,0.456-0.26,0.691-0.395c0.251-0.136,0.477-0.291,0.702-0.443c0.109-0.118,0.225-0.239,0.345-0.359
				c-0.404,0.215-0.776,0.446-1.193,0.637c-0.241,0.115-0.488,0.234-0.737,0.353c-0.257,0.111-0.516,0.223-0.772,0.333
				c-0.249,0.115-0.522,0.209-0.787,0.315c-0.266,0.105-0.532,0.213-0.814,0.306c-0.278,0.097-0.536,0.191-0.794,0.275
				c-0.264,0.077-0.522,0.154-0.789,0.232c-0.267,0.084-0.542,0.143-0.806,0.207c-0.266,0.059-0.519,0.129-0.779,0.17
				c-0.244,0.043-0.53,0.092-0.834,0.145c-0.303,0.054-0.633,0.091-0.949,0.143c-0.319,0.054-0.626,0.088-0.928,0.124
				c-0.302,0.034-0.595,0.081-0.904,0.101c0,0-0.442,0.039-0.884,0.078c-0.444,0.022-0.889,0.044-0.889,0.044
				c-0.287,0.018-0.579,0.017-0.867,0.017c-0.288-0.002-0.574,0.01-0.845-0.007l-0.821-0.04c-0.281-0.011-0.597-0.053-0.915-0.078
				c-0.16-0.014-0.318-0.028-0.475-0.042c-0.155-0.02-0.309-0.039-0.461-0.059c-0.304-0.042-0.606-0.066-0.898-0.118
				c-0.592-0.09-1.213-0.201-1.756-0.308c-0.277-0.059-0.546-0.117-0.822-0.176c-0.274-0.065-0.553-0.131-0.852-0.201
				c-0.583-0.143-1.239-0.305-1.78-0.438c-0.535-0.133-1.044-0.267-1.61-0.415c0,0-0.435-0.111-0.87-0.222
				c-0.434-0.112-0.877-0.215-0.877-0.215s-0.426-0.105-0.863-0.199c-0.432-0.1-0.874-0.186-0.874-0.186
				c-0.582-0.121-1.113-0.214-1.668-0.312c-0.288-0.044-0.614-0.102-0.954-0.143c-0.342-0.036-0.69-0.084-1.019-0.105
				c-0.661-0.048-1.347-0.075-2.053-0.054c-0.718,0.02-1.203,0.058-1.782,0.095c-0.537,0.038-1.234,0.093-1.886,0.166l-0.946,0.111
				c-0.286,0.034-0.549,0.065-0.828,0.098c-0.544,0.062-1.145,0.125-1.737,0.179c0,0-0.448,0.043-0.895,0.074
				c-0.223,0.016-0.446,0.031-0.614,0.043c-0.167,0.008-0.278,0.014-0.278,0.014s-0.225,0.011-0.45,0.021
				c-0.225,0.014-0.449,0.013-0.449,0.013c-0.3,0.002-0.537,0.015-0.784,0.003c-0.243-0.009-0.456-0.016-0.699-0.032
				c-0.237-0.026-0.561-0.052-0.908-0.094c-0.346-0.052-0.688-0.083-0.999-0.139c-0.314-0.053-0.61-0.113-0.889-0.182
				c-0.563-0.134-1.182-0.37-1.496-0.562c-0.315-0.187-0.534-0.384-0.696-0.68c-0.34-0.419-0.451-0.949-0.086-1.405L160.138,264.082
				z"/>
		</g>
		<g>
			<path fill="#FFFFFF" stroke="#FFFFFF" stroke-miterlimit="10" d="M159.493,264.249c0.226,0.024,0.449,0.054,0.64,0.092
				c0.983,0.093,2.028,0.132,3.105,0.153c0.217,0,0.434,0.001,0.647,0.001c0.289-0.022,0.538-0.037,0.838-0.053
				c0.468-0.025,0.913-0.035,1.3-0.037c0.196-0.002,0.412,0.005,0.707,0.01c0.293,0.003,0.615,0.005,0.912,0.008
				c0.294-0.001,0.6-0.003,0.851-0.004l0.754,0.004c0,0,0.381,0.001,0.761,0.012c0.38,0.008,0.76,0.019,0.76,0.019
				c0.509,0.021,1.014,0.037,1.564,0.071c0.271,0.014,0.553,0.026,0.815,0.045l0.719,0.047c0.461,0.044,0.897,0.082,1.456,0.156
				c0.265,0.033,0.547,0.067,0.816,0.1c0.268,0.038,0.522,0.073,0.733,0.103c0.433,0.06,0.881,0.147,1.34,0.241
				c0.463,0.097,0.839,0.188,1.334,0.318c0.507,0.135,1.036,0.276,1.514,0.403c0,0,0.357,0.098,0.715,0.195
				c0.356,0.101,0.712,0.203,0.712,0.203l1.381,0.408c0.468,0.142,0.983,0.297,1.482,0.439c0.492,0.142,0.889,0.257,1.348,0.39
				c0.443,0.133,0.955,0.283,1.446,0.419c0.506,0.134,0.948,0.252,1.418,0.377c0.474,0.125,0.941,0.239,1.384,0.349l0.702,0.173
				c0.257,0.06,0.531,0.123,0.799,0.176c0.541,0.11,1.051,0.197,1.581,0.274c0,0,0.387,0.052,0.775,0.099
				c0.195,0.02,0.39,0.041,0.536,0.056c0.146,0.016,0.245,0.022,0.245,0.022c0.499,0.043,1.035,0.082,1.505,0.098
				c0.478,0.02,0.924,0.039,1.532,0.04c0.583-0.009,1.148-0.039,1.677-0.1c0.538-0.05,1.094-0.151,1.572-0.246
				c0.476-0.104,0.958-0.209,1.433-0.35c0.477-0.132,0.923-0.286,1.38-0.46c0.237-0.094,0.469-0.194,0.69-0.3
				c0.111-0.095,0.226-0.191,0.345-0.286c-0.188,0.073-0.375,0.145-0.561,0.218c-0.193,0.064-0.382,0.13-0.575,0.189
				c-0.461,0.13-0.944,0.267-1.435,0.367c-0.483,0.107-0.989,0.193-1.502,0.273c-0.516,0.074-0.969,0.125-1.459,0.154
				c-0.494,0.035-0.966,0.042-1.414,0.033c-0.424-0.012-0.992-0.044-1.537-0.083c-0.551-0.037-1.036-0.082-1.553-0.14
				c0,0-0.37-0.043-0.74-0.09c-0.184-0.027-0.368-0.053-0.506-0.073c-0.137-0.022-0.229-0.036-0.229-0.036
				c-0.472-0.077-0.958-0.165-1.398-0.262c0,0-0.167-0.034-0.331-0.074c-0.165-0.039-0.33-0.077-0.33-0.077
				c-0.225-0.056-0.48-0.12-0.736-0.184c-0.514-0.133-1.008-0.258-1.485-0.388c-0.482-0.13-0.989-0.269-1.433-0.395
				c-0.455-0.131-0.881-0.259-1.371-0.411c-0.48-0.144-1.02-0.306-1.466-0.439c-0.44-0.134-0.86-0.262-1.325-0.404l-1.43-0.431
				c0,0-0.351-0.102-0.702-0.204c-0.354-0.099-0.708-0.198-0.708-0.198c-0.473-0.129-0.894-0.245-1.337-0.366
				c-0.452-0.127-1.043-0.274-1.562-0.386c-0.524-0.111-1.068-0.219-1.645-0.298c-0.584-0.089-0.991-0.129-1.471-0.192
				c-0.447-0.058-1.033-0.121-1.592-0.167l-0.816-0.055c-0.248-0.013-0.477-0.025-0.718-0.037c-0.472-0.03-0.995-0.048-1.511-0.07
				c0,0-0.391-0.012-0.781-0.021c-0.391-0.012-0.781-0.014-0.781-0.014l-0.79-0.005c-0.264,0.001-0.471,0.001-0.691,0.002
				c-0.215-0.003-0.403-0.006-0.621-0.009c-0.214-0.004-0.506-0.009-0.822-0.014c-0.64-0.001-1.229,0.016-1.789,0.045
				c-0.561,0.022-1.249,0.081-1.676,0.117c-0.417,0.035-0.804,0.06-1.288,0.087c-0.725,0.117-1.433,0.241-2.131,0.37
				L159.493,264.249z"/>
		</g>
		<g>
			<path fill="#FFFFFF" stroke="#FFFFFF" stroke-miterlimit="10" d="M191.35,268.627c-0.128-0.064-0.25-0.129-0.349-0.192
				c-0.558-0.267-1.166-0.53-1.798-0.799c-0.13-0.052-0.259-0.103-0.387-0.154c-0.184-0.059-0.34-0.111-0.526-0.176
				c-0.291-0.101-0.566-0.201-0.797-0.295c-0.116-0.048-0.246-0.101-0.422-0.174c-0.177-0.072-0.37-0.15-0.549-0.222
				c-0.18-0.069-0.368-0.14-0.521-0.198l-0.465-0.175l-0.94-0.356c-0.318-0.118-0.632-0.235-0.977-0.362
				c-0.17-0.062-0.349-0.125-0.518-0.182l-0.46-0.158c-0.297-0.103-0.576-0.2-0.94-0.326c-0.345-0.118-0.746-0.239-1.027-0.327
				c-0.29-0.089-0.596-0.183-0.91-0.279c-0.318-0.097-0.58-0.176-0.929-0.283c-0.359-0.106-0.741-0.207-1.087-0.296
				c0,0-0.263-0.061-0.525-0.122c-0.131-0.031-0.263-0.061-0.361-0.084c-0.098-0.023-0.166-0.035-0.166-0.035
				s-0.259-0.052-0.519-0.104c-0.13-0.026-0.259-0.052-0.356-0.072c-0.097-0.021-0.163-0.03-0.163-0.03
				c-0.358-0.059-0.747-0.131-1.127-0.18c-0.375-0.047-0.678-0.085-1.027-0.128c-0.341-0.035-0.731-0.083-1.104-0.112
				c-0.383-0.026-0.716-0.054-1.071-0.074c-0.358-0.018-0.707-0.035-1.038-0.051l-0.524-0.018c-0.19-0.006-0.393-0.016-0.588-0.015
				c-0.396,0.004-0.763,0.002-1.14,0.016c0,0-0.274,0.013-0.548,0.026c-0.137,0.007-0.274,0.013-0.376,0.018
				c-0.102,0.007-0.17,0.012-0.17,0.012c-0.348,0.027-0.718,0.055-1.041,0.08c-0.329,0.029-0.635,0.056-1.051,0.094
				c-0.396,0.049-0.78,0.095-1.139,0.155c-0.362,0.063-0.746,0.129-1.073,0.202c-0.328,0.075-0.665,0.139-1.004,0.22
				c-0.335,0.084-0.667,0.155-1.008,0.245l-0.531,0.146l-0.313,0.146c0.293-0.06,0.584-0.119,0.874-0.178
				c0.346-0.063,0.705-0.128,1.054-0.192c0.353-0.059,0.713-0.12,1.076-0.181c0.365-0.06,0.687-0.1,1.028-0.148
				c0.347-0.045,0.68-0.073,0.996-0.101c0.299-0.026,0.707-0.038,1.094-0.069c0.393-0.026,0.743-0.04,1.114-0.062
				c0,0,0.066-0.006,0.167-0.009c0.1-0.003,0.234-0.007,0.367-0.012c0.267-0.009,0.534-0.017,0.534-0.017
				c0.345-0.006,0.702-0.003,1.029-0.002c0,0,0.124-0.001,0.247,0.006c0.123,0.005,0.247,0.01,0.247,0.01
				c0.169,0.007,0.362,0.015,0.555,0.023c0.388,0.016,0.758,0.043,1.12,0.061c0.363,0.028,0.745,0.057,1.081,0.082
				c0.343,0.032,0.664,0.073,1.036,0.114c0.359,0.048,0.763,0.101,1.097,0.146c0.326,0.05,0.635,0.106,0.978,0.165
				c0,0,0.066,0.009,0.163,0.03c0.097,0.02,0.226,0.047,0.355,0.073c0.259,0.053,0.517,0.106,0.517,0.106s0.249,0.057,0.497,0.116
				c0.248,0.059,0.496,0.118,0.496,0.118c0.326,0.085,0.614,0.166,0.914,0.252c0.305,0.094,0.695,0.214,1.03,0.317
				c0.338,0.106,0.685,0.215,1.047,0.328c0.367,0.116,0.623,0.191,0.919,0.294c0.275,0.096,0.633,0.221,0.974,0.341l0.498,0.172
				c0.15,0.054,0.289,0.103,0.436,0.155c0.284,0.106,0.599,0.223,0.909,0.339l0.937,0.356l0.474,0.18
				c0.159,0.061,0.283,0.108,0.415,0.159c0.127,0.052,0.238,0.097,0.367,0.149c0.126,0.052,0.298,0.124,0.483,0.202
				c0.38,0.154,0.739,0.286,1.087,0.406c0.344,0.124,0.786,0.26,1.061,0.343c0.268,0.085,0.513,0.163,0.821,0.261
				c0.494,0.115,0.993,0.206,1.481,0.298L191.35,268.627z"/>
		</g>
		<g>
			<path fill="#FFFFFF" stroke="#FFFFFF" stroke-miterlimit="10" d="M200.699,269.418c-0.198-0.008-0.391-0.019-0.555-0.037
				c-0.423-0.007-0.86-0.041-1.302-0.053c-0.444-0.034-0.896-0.049-1.353-0.093c-0.186-0.014-0.37-0.022-0.551-0.039
				c-0.25-0.012-0.464-0.022-0.722-0.035c-0.401-0.029-0.783-0.065-1.111-0.106c-0.164-0.024-0.348-0.051-0.597-0.087
				c-0.247-0.033-0.517-0.082-0.768-0.118c-0.248-0.036-0.507-0.077-0.718-0.112c0,0-0.159-0.026-0.318-0.052
				c-0.16-0.025-0.318-0.054-0.318-0.054s-0.32-0.059-0.639-0.118c-0.319-0.06-0.636-0.126-0.636-0.126
				c-0.428-0.083-0.847-0.179-1.309-0.276c-0.226-0.05-0.462-0.102-0.682-0.15l-0.602-0.135c-0.388-0.088-0.749-0.181-1.222-0.298
				c-0.446-0.11-0.953-0.234-1.311-0.322c-0.366-0.094-0.752-0.193-1.148-0.295c-0.398-0.108-0.726-0.196-1.162-0.314
				c-0.446-0.121-0.915-0.244-1.344-0.349l-1.284-0.309c0,0-0.315-0.071-0.629-0.143c-0.314-0.073-0.632-0.138-0.632-0.138
				c-0.43-0.095-0.907-0.187-1.366-0.271c-0.455-0.077-0.822-0.142-1.249-0.209c-0.414-0.067-0.891-0.139-1.349-0.193
				c-0.467-0.06-0.88-0.097-1.316-0.14c-0.442-0.035-0.872-0.074-1.283-0.093c0,0-0.162-0.01-0.324-0.021
				c-0.162-0.013-0.325-0.015-0.325-0.015c-0.237-0.007-0.488-0.014-0.731-0.022c-0.491-0.002-0.946,0.004-1.411,0.023
				c0,0-0.338,0.016-0.675,0.032c-0.336,0.019-0.673,0.037-0.673,0.037c-0.428,0.025-0.883,0.052-1.281,0.075
				c-0.405,0.024-0.782,0.034-1.294,0.053c-0.49,0.016-0.964,0.033-1.413,0.043c-0.454,0.006-0.935,0.013-1.354,0.004
				c-0.42-0.011-0.847-0.03-1.279-0.077c-0.217-0.017-0.428-0.045-0.638-0.079c-0.212-0.03-0.425-0.063-0.636-0.112
				c-0.223-0.047-0.449-0.09-0.663-0.152c-0.148-0.019-0.302-0.041-0.461-0.065c0.341,0.111,0.676,0.232,1.031,0.316
				c0.104,0.027,0.208,0.055,0.314,0.083l0.329,0.066c0.22,0.046,0.445,0.087,0.671,0.114c0.446,0.068,0.913,0.108,1.385,0.133
				c0.473,0.025,0.885,0.031,1.325,0.037c0.445,0.002,0.866-0.001,1.267-0.004c0.379-0.001,0.89-0.006,1.38-0.023
				c0.495-0.02,0.932-0.038,1.397-0.057c0,0,0.333-0.014,0.666-0.028c0.333-0.013,0.664-0.022,0.664-0.022
				c0.428-0.012,0.869-0.014,1.274-0.01l0.609,0.022c0.209,0.006,0.446,0.019,0.683,0.037c0.479,0.026,0.934,0.068,1.378,0.106
				c0.446,0.049,0.918,0.092,1.327,0.151c0.422,0.053,0.816,0.115,1.27,0.191c0.44,0.074,0.936,0.159,1.343,0.236
				c0.401,0.075,0.782,0.153,1.201,0.246c0,0,0.322,0.068,0.64,0.143c0.319,0.074,0.638,0.147,0.638,0.147l1.234,0.302
				c0.409,0.102,0.772,0.198,1.149,0.303c0.388,0.106,0.885,0.242,1.312,0.359c0.434,0.116,0.881,0.234,1.349,0.35
				c0.478,0.117,0.807,0.198,1.198,0.294c0.364,0.091,0.837,0.212,1.294,0.316l0.666,0.149c0.203,0.045,0.39,0.086,0.587,0.129
				c0.389,0.081,0.815,0.18,1.244,0.263c0,0,0.323,0.065,0.647,0.129c0.326,0.06,0.652,0.121,0.652,0.121s0.165,0.031,0.331,0.057
				c0.166,0.027,0.333,0.055,0.333,0.055c0.223,0.036,0.397,0.067,0.583,0.093c0.182,0.029,0.341,0.055,0.525,0.085
				c0.18,0.033,0.427,0.069,0.698,0.107c0.545,0.08,1.06,0.121,1.549,0.157c0.246,0.015,0.521,0.029,0.782,0.039
				c0.261,0.003,0.509,0.005,0.699,0.007c0.37,0.006,0.714-0.007,1.142-0.005c0.321-0.035,0.64-0.07,0.96-0.105l0.928-0.145
				L200.699,269.418z"/>
		</g>
		<g>
			<path fill="#FFFFFF" stroke="#FFFFFF" stroke-miterlimit="10" d="M160.765,264.541c0.008,0.118,0.031,0.238,0.064,0.343
				c0.126,0.261,0.401,0.51,0.755,0.704c0.351,0.2,0.771,0.352,1.216,0.474c0.182,0.047,0.365,0.087,0.548,0.123
				c0.257,0.036,0.473,0.055,0.733,0.084c0.405,0.049,0.793,0.073,1.128,0.107c0.169,0.014,0.358,0.03,0.614,0.051
				c0.254,0.015,0.536,0.031,0.796,0.04c0.257,0.004,0.525,0.008,0.744,0.011l0.659-0.002c0,0,0.332-0.005,0.664-0.01
				c0.331-0.007,0.662-0.015,0.662-0.015c0.443-0.014,0.881-0.027,1.361-0.042c0.235-0.009,0.479-0.019,0.708-0.028l0.624-0.024
				c0.403-0.014,0.781-0.019,1.274-0.024c0.465-0.004,0.989-0.006,1.36-0.002c0.379,0.007,0.779,0.022,1.188,0.05
				c0.414,0.027,0.753,0.059,1.201,0.112c0.459,0.052,0.937,0.115,1.369,0.173c0,0,0.322,0.047,0.644,0.094
				c0.321,0.052,0.641,0.104,0.641,0.104s0.311,0.052,0.621,0.109c0.31,0.058,0.619,0.115,0.619,0.115
				c0.42,0.083,0.879,0.174,1.321,0.261c0.434,0.087,0.785,0.16,1.187,0.251c0.39,0.089,0.837,0.191,1.263,0.287
				c0.435,0.1,0.815,0.187,1.219,0.28c0.406,0.096,0.801,0.19,1.176,0.278l0.592,0.144c0.215,0.052,0.444,0.108,0.667,0.157
				c0.45,0.102,0.872,0.19,1.307,0.279c0,0,0.318,0.061,0.636,0.121c0.32,0.058,0.639,0.115,0.639,0.115
				c0.407,0.073,0.846,0.144,1.229,0.206c0.391,0.061,0.753,0.124,1.251,0.193c0.479,0.064,0.946,0.116,1.393,0.15
				c0.45,0.042,0.933,0.06,1.352,0.072c0.421,0.013,0.848,0.017,1.287,0.015c0.436-0.009,0.86-0.013,1.306-0.041
				c0.233-0.009,0.466-0.026,0.696-0.05c0.146-0.031,0.292-0.063,0.44-0.094c-0.374,0.011-0.741,0.035-1.108,0.03
				c-0.43,0.004-0.883-0.008-1.325-0.018c-0.22-0.009-0.442-0.019-0.666-0.028c-0.224-0.013-0.45-0.027-0.676-0.04
				c-0.454-0.032-0.848-0.062-1.265-0.111c-0.424-0.043-0.821-0.102-1.199-0.16c-0.355-0.063-0.834-0.148-1.29-0.229
				c-0.464-0.084-0.876-0.157-1.311-0.244c0,0-0.313-0.061-0.625-0.122c-0.312-0.064-0.623-0.128-0.623-0.128
				c-0.4-0.087-0.814-0.176-1.191-0.267l-0.568-0.138c-0.194-0.048-0.415-0.104-0.637-0.159c-0.449-0.109-0.877-0.213-1.295-0.315
				c-0.424-0.1-0.87-0.205-1.261-0.297c-0.403-0.094-0.783-0.183-1.222-0.285c-0.427-0.099-0.913-0.202-1.314-0.285
				c-0.397-0.08-0.777-0.157-1.196-0.242c0,0-0.323-0.061-0.646-0.123c-0.323-0.061-0.65-0.116-0.65-0.116s-0.318-0.053-0.636-0.105
				c-0.32-0.048-0.64-0.096-0.64-0.096c-0.428-0.057-0.808-0.113-1.21-0.16c-0.41-0.055-0.942-0.108-1.403-0.14
				c-0.465-0.033-0.945-0.055-1.443-0.061c-0.507-0.004-0.853,0.001-1.266,0.004c-0.384,0.004-0.884,0.009-1.357,0.026l-0.688,0.026
				c-0.208,0.008-0.401,0.015-0.604,0.023c-0.396,0.012-0.836,0.025-1.27,0.038c0,0-0.327,0.007-0.654,0.014
				c-0.327,0.005-0.653,0.009-0.653,0.009l-0.659,0.002c-0.22-0.003-0.393-0.006-0.576-0.009c-0.18-0.003-0.336-0.012-0.515-0.023
				c-0.177-0.011-0.417-0.025-0.677-0.049c-0.263-0.019-0.515-0.038-0.758-0.062c-0.244-0.019-0.478-0.042-0.705-0.07
				c-0.464-0.043-0.996-0.124-1.324-0.197c-0.316-0.07-0.601-0.154-0.911-0.29c-0.507-0.169-0.939-0.426-1.136-0.787
				L160.765,264.541z"/>
		</g>
		<g>
			<path fill="#FFFFFF" stroke="#FFFFFF" stroke-miterlimit="10" d="M160.91,264.361c-0.049,0.043-0.11,0.085-0.163,0.125
				c-0.197,0.214-0.253,0.505-0.173,0.789c0.023,0.056,0.041,0.114,0.071,0.167c0.055,0.069,0.108,0.126,0.17,0.195
				c0.1,0.106,0.202,0.203,0.293,0.287c0.047,0.042,0.095,0.091,0.171,0.152c0.073,0.062,0.166,0.125,0.258,0.179
				c0.09,0.054,0.191,0.103,0.274,0.141c0,0,0.064,0.028,0.127,0.055c0.063,0.028,0.129,0.053,0.129,0.053s0.131,0.053,0.267,0.099
				c0.136,0.046,0.274,0.087,0.274,0.087c0.186,0.055,0.373,0.101,0.58,0.144c0.102,0.021,0.209,0.04,0.309,0.055l0.274,0.04
				c0.176,0.025,0.341,0.05,0.556,0.076c0.203,0.025,0.433,0.041,0.596,0.051c0.167,0.012,0.341,0.028,0.521,0.046
				c0.182,0.014,0.331,0.029,0.529,0.051c0.202,0.024,0.417,0.034,0.61,0.045c0,0,0.145,0.007,0.289,0.015
				c0.145,0.004,0.29,0.009,0.29,0.009s0.141,0.004,0.282,0.008c0.141,0.005,0.282,0.006,0.282,0.006
				c0.192,0.003,0.402,0.004,0.603,0c0.198-0.008,0.358-0.013,0.543-0.015c0.179,0,0.385-0.01,0.58-0.017
				c0.2-0.007,0.374-0.018,0.558-0.029c0.186-0.009,0.367-0.018,0.539-0.027l0.272-0.012c0.099-0.005,0.204-0.01,0.305-0.016
				c0.204-0.016,0.393-0.035,0.587-0.056c0,0,0.141-0.014,0.281-0.035c0.14-0.019,0.28-0.038,0.28-0.038
				c0.179-0.025,0.368-0.051,0.533-0.074c0.168-0.026,0.328-0.037,0.542-0.066c0.205-0.029,0.401-0.065,0.585-0.1
				c0.187-0.036,0.38-0.086,0.548-0.128c0.172-0.043,0.34-0.085,0.516-0.128c0.177-0.044,0.345-0.085,0.523-0.129
				c0.092-0.024,0.184-0.049,0.278-0.074c0.048-0.034,0.1-0.067,0.153-0.1c-0.157,0.021-0.311,0.042-0.468,0.062
				c-0.189,0.025-0.377,0.05-0.559,0.074l-0.563,0.085c-0.19,0.03-0.355,0.056-0.533,0.08c-0.181,0.022-0.352,0.041-0.518,0.054
				c-0.156,0.013-0.369,0.019-0.57,0.039c-0.205,0.02-0.384,0.036-0.574,0.055c0,0-0.137,0.014-0.274,0.028
				c-0.137,0.015-0.275,0.025-0.275,0.025c-0.178,0.013-0.361,0.026-0.531,0.039l-0.257,0.009c-0.088,0.003-0.189,0.006-0.288,0.009
				c-0.203,0.008-0.395,0.015-0.582,0.022c-0.189,0.009-0.388,0.017-0.563,0.022c-0.18,0.004-0.349,0.011-0.545,0.009
				c-0.19-0.001-0.404,0.005-0.581,0.008c-0.174,0.001-0.34-0.003-0.524-0.006c0,0-0.141-0.001-0.281-0.008
				c-0.14-0.005-0.281-0.011-0.281-0.011s-0.137-0.005-0.273-0.011c-0.136-0.008-0.273-0.016-0.273-0.016
				c-0.181-0.012-0.342-0.021-0.51-0.041c-0.171-0.021-0.391-0.045-0.581-0.062c-0.191-0.02-0.387-0.041-0.593-0.055
				c-0.209-0.014-0.352-0.026-0.52-0.046c-0.156-0.019-0.356-0.05-0.546-0.077l-0.275-0.042c-0.083-0.013-0.158-0.028-0.238-0.043
				c-0.154-0.033-0.322-0.073-0.48-0.121c0,0-0.12-0.036-0.237-0.075c-0.116-0.04-0.227-0.084-0.227-0.084s-0.058-0.021-0.111-0.046
				c-0.054-0.024-0.109-0.048-0.109-0.048c-0.069-0.034-0.128-0.06-0.178-0.092c-0.052-0.03-0.096-0.058-0.14-0.094
				c-0.047-0.033-0.1-0.084-0.163-0.137c-0.121-0.108-0.226-0.209-0.317-0.308c-0.092-0.099-0.192-0.226-0.243-0.308
				c-0.053-0.08-0.078-0.158-0.098-0.256c-0.092-0.143-0.152-0.3-0.161-0.468L160.91,264.361z"/>
		</g>
	</g>
	<g>
		<g>
			<path fill="#FFFFFF" stroke="#FFFFFF" stroke-miterlimit="10" d="M107.645,265.542c0.232,0.089,0.463,0.171,0.672,0.23
				c0.998,0.373,2.047,0.747,3.16,1.084c0.222,0.072,0.448,0.136,0.667,0.204c0.289,0.105,0.538,0.196,0.849,0.291
				c0.484,0.149,0.957,0.275,1.378,0.362c0.214,0.043,0.449,0.093,0.777,0.145c0.321,0.058,0.68,0.113,1.009,0.167
				c0.327,0.049,0.667,0.104,0.948,0.14c0,0,0.212,0.027,0.423,0.054c0.211,0.028,0.425,0.047,0.425,0.047s0.43,0.048,0.864,0.077
				c0.216,0.019,0.434,0.029,0.597,0.038c0.163,0.009,0.272,0.014,0.272,0.014c0.585,0.025,1.166,0.037,1.804,0.031
				c0.313,0,0.639-0.006,0.944-0.015c0,0,0.209-0.002,0.417-0.014c0.208-0.009,0.417-0.019,0.417-0.019
				c0.538-0.031,1.042-0.077,1.696-0.152c0.617-0.07,1.312-0.162,1.801-0.239c0.501-0.079,1.022-0.182,1.552-0.299
				c0.532-0.125,0.966-0.235,1.527-0.405c0.287-0.087,0.581-0.177,0.871-0.265c0.288-0.092,0.571-0.184,0.841-0.27
				c0,0,0.101-0.031,0.25-0.084c0.15-0.051,0.349-0.119,0.549-0.188c0.2-0.067,0.398-0.138,0.546-0.193
				c0.148-0.054,0.247-0.09,0.247-0.09s0.386-0.137,0.766-0.283c0.381-0.145,0.763-0.29,0.763-0.29
				c0.52-0.2,1.088-0.419,1.635-0.629c0.543-0.205,0.982-0.372,1.489-0.563c0.489-0.19,1.059-0.402,1.603-0.599
				c0.565-0.195,1.057-0.366,1.591-0.536c0.266-0.089,0.532-0.173,0.797-0.251c0.265-0.078,0.518-0.163,0.774-0.233l0.806-0.23
				c0.296-0.08,0.618-0.154,0.926-0.228c0.31-0.078,0.625-0.126,0.928-0.187c0.303-0.062,0.61-0.107,0.922-0.15
				c0,0,0.452-0.067,0.911-0.108c0.228-0.024,0.457-0.048,0.63-0.057c0.172-0.012,0.287-0.02,0.287-0.02
				c0.293-0.024,0.596-0.037,0.894-0.046c0.298-0.014,0.592-0.022,0.866-0.021c0.558-0.006,1.078-0.012,1.784,0.017
				c0.338,0.016,0.671,0.033,0.994,0.068c0.324,0.029,0.639,0.062,0.942,0.108c0.309,0.039,0.625,0.087,0.929,0.147
				c0.306,0.054,0.604,0.114,0.876,0.179c0.275,0.061,0.553,0.121,0.826,0.194c0.275,0.07,0.555,0.137,0.828,0.221
				c0.55,0.156,1.076,0.322,1.615,0.514c0.279,0.104,0.564,0.201,0.827,0.32c0.144,0.099,0.295,0.198,0.45,0.298
				c-0.454-0.155-0.9-0.309-1.363-0.435c-0.54-0.152-1.115-0.3-1.686-0.427c-0.566-0.128-1.154-0.244-1.753-0.347
				c-0.599-0.105-1.128-0.176-1.697-0.231c-0.287-0.033-0.569-0.052-0.844-0.068c-0.275-0.02-0.543-0.031-0.806-0.031
				c-0.248-0.002-0.539-0.008-0.848,0.002c-0.309,0.004-0.635,0.008-0.955,0.023c-0.162,0.005-0.319,0.01-0.473,0.015
				c-0.154,0.009-0.304,0.018-0.454,0.027c-0.15,0.008-0.298,0.017-0.447,0.025c-0.148,0.013-0.297,0.027-0.448,0.04
				c0,0-0.435,0.03-0.864,0.088c-0.432,0.046-0.855,0.117-0.855,0.117c-0.275,0.042-0.553,0.087-0.823,0.146
				c-0.27,0.056-0.541,0.104-0.792,0.166l-0.757,0.192c-0.259,0.067-0.545,0.159-0.837,0.241c-0.295,0.081-0.575,0.175-0.855,0.261
				c-0.28,0.084-0.552,0.173-0.818,0.265c-0.541,0.177-1.103,0.379-1.597,0.554c-0.503,0.187-0.975,0.366-1.515,0.581
				c-0.53,0.206-1.126,0.437-1.618,0.628c-0.486,0.191-0.95,0.373-1.463,0.575c0,0-0.396,0.153-0.792,0.306
				c-0.394,0.154-0.8,0.3-0.8,0.3s-0.098,0.036-0.244,0.09c-0.146,0.055-0.343,0.126-0.543,0.194
				c-0.199,0.069-0.398,0.138-0.547,0.19c-0.148,0.053-0.25,0.085-0.25,0.085c-0.538,0.174-1.014,0.334-1.526,0.489
				c-0.515,0.171-1.205,0.353-1.806,0.496c-0.61,0.137-1.243,0.271-1.915,0.37c-0.683,0.104-1.158,0.156-1.722,0.224
				c-0.526,0.059-1.214,0.131-1.875,0.163c0,0-0.24,0.011-0.48,0.023c-0.241,0.006-0.481,0.012-0.481,0.012
				c-0.292,0.01-0.563,0.007-0.848,0.011c-0.557,0.004-1.176-0.006-1.785-0.031c0,0-0.115-0.006-0.288-0.015
				c-0.173-0.009-0.403-0.019-0.633-0.039c-0.46-0.03-0.917-0.08-0.917-0.08s-0.232-0.021-0.461-0.05
				c-0.23-0.029-0.459-0.058-0.459-0.058c-0.308-0.039-0.546-0.081-0.8-0.115c-0.249-0.038-0.467-0.071-0.718-0.109
				c-0.248-0.037-0.583-0.093-0.947-0.161c-0.731-0.144-1.384-0.32-1.992-0.507c-0.607-0.189-1.329-0.462-1.752-0.654
				c-0.213-0.088-0.414-0.177-0.621-0.271c-0.211-0.091-0.426-0.189-0.661-0.301c-0.651-0.399-1.235-0.824-1.751-1.268
				L107.645,265.542z"/>
		</g>
		<g>
			<path fill="#FFFFFF" stroke="#FFFFFF" stroke-miterlimit="10" d="M159.435,264.082c0.193,0.101,0.355,0.23,0.495,0.351
				c0.288,0.336,0.37,0.776,0.237,1.205c-0.123,0.431-0.502,0.861-1.015,1.185c-0.211,0.131-0.439,0.246-0.673,0.349
				c-0.339,0.119-0.639,0.204-1.001,0.292c-0.567,0.133-1.118,0.226-1.591,0.284c-0.241,0.028-0.504,0.083-0.87,0.111
				c-0.182,0.016-0.372,0.033-0.564,0.05c-0.192,0.014-0.386,0.017-0.571,0.023c-0.368,0.017-0.749,0.007-1.06,0.001
				c0,0-0.236,0-0.468-0.014c-0.233-0.011-0.465-0.022-0.465-0.022s-0.117-0.006-0.294-0.014c-0.175-0.012-0.407-0.029-0.64-0.045
				c-0.466-0.033-0.925-0.078-0.925-0.078c-0.618-0.058-1.224-0.121-1.882-0.197c-0.322-0.038-0.657-0.078-0.97-0.116l-0.852-0.1
				c-0.549-0.059-1.068-0.104-1.74-0.152c-0.316-0.02-0.654-0.041-0.976-0.061c-0.321-0.012-0.626-0.023-0.879-0.033
				c-0.258,0.002-0.524,0.003-0.795,0.005c-0.27,0.008-0.545,0.028-0.825,0.043c-0.562,0.045-1.025,0.092-1.631,0.191
				c-0.311,0.044-0.627,0.101-0.938,0.157c-0.313,0.051-0.618,0.114-0.91,0.171c0,0-0.436,0.083-0.868,0.18
				c-0.434,0.091-0.865,0.196-0.865,0.196s-0.42,0.096-0.839,0.202c-0.419,0.105-0.838,0.21-0.838,0.21
				c-0.569,0.146-1.195,0.307-1.804,0.452c-0.602,0.143-1.088,0.258-1.649,0.391c-0.275,0.063-0.57,0.13-0.871,0.199
				c-0.306,0.063-0.617,0.127-0.921,0.19c-0.315,0.056-0.611,0.109-0.9,0.161c-0.291,0.049-0.581,0.088-0.876,0.135
				c-0.297,0.049-0.6,0.073-0.891,0.111c-0.293,0.034-0.578,0.072-0.861,0.091l-0.89,0.077c-0.325,0.018-0.671,0.03-1.005,0.042
				c-0.338,0.017-0.664,0.002-0.986,0.001c-0.322-0.003-0.64-0.008-0.961-0.033c0,0-0.467-0.026-0.932-0.063
				c-0.462-0.048-0.925-0.097-0.925-0.097c-0.296-0.025-0.594-0.081-0.89-0.119c-0.296-0.043-0.588-0.079-0.854-0.132
				c-0.272-0.05-0.537-0.094-0.82-0.141c-0.282-0.049-0.576-0.116-0.917-0.186c-0.329-0.065-0.641-0.151-0.946-0.235
				c-0.305-0.085-0.606-0.163-0.884-0.261c-0.285-0.094-0.578-0.191-0.859-0.293c-0.273-0.111-0.542-0.22-0.792-0.321
				c-0.254-0.097-0.491-0.215-0.739-0.325c-0.244-0.113-0.5-0.218-0.736-0.347c-0.24-0.122-0.477-0.243-0.715-0.365
				c-0.227-0.13-0.456-0.26-0.691-0.395c-0.252-0.136-0.477-0.291-0.702-0.443c-0.109-0.118-0.225-0.239-0.345-0.359
				c0.404,0.215,0.776,0.446,1.193,0.637c0.241,0.115,0.488,0.234,0.737,0.353c0.257,0.111,0.516,0.223,0.772,0.333
				c0.249,0.115,0.523,0.209,0.787,0.315c0.266,0.105,0.532,0.213,0.814,0.306c0.278,0.097,0.536,0.191,0.794,0.275
				c0.264,0.077,0.522,0.154,0.789,0.232c0.267,0.084,0.542,0.143,0.806,0.207c0.266,0.059,0.519,0.129,0.779,0.17
				c0.244,0.043,0.53,0.092,0.834,0.145c0.303,0.054,0.633,0.091,0.949,0.143c0.319,0.054,0.626,0.088,0.927,0.124
				c0.302,0.034,0.595,0.081,0.904,0.101c0,0,0.442,0.039,0.884,0.078c0.444,0.022,0.889,0.044,0.889,0.044
				c0.287,0.018,0.579,0.017,0.867,0.017c0.288-0.002,0.574,0.01,0.845-0.007l0.821-0.04c0.281-0.011,0.597-0.053,0.915-0.078
				c0.16-0.014,0.318-0.028,0.475-0.042c0.155-0.02,0.309-0.039,0.461-0.059c0.304-0.042,0.606-0.066,0.898-0.118
				c0.592-0.09,1.213-0.201,1.755-0.308c0.277-0.059,0.546-0.117,0.822-0.176c0.274-0.065,0.553-0.131,0.852-0.201
				c0.583-0.143,1.239-0.305,1.78-0.438c0.535-0.133,1.044-0.267,1.61-0.415c0,0,0.435-0.111,0.87-0.222
				c0.434-0.112,0.877-0.215,0.877-0.215s0.426-0.105,0.863-0.199c0.432-0.1,0.874-0.186,0.874-0.186
				c0.582-0.121,1.113-0.214,1.668-0.312c0.288-0.044,0.614-0.102,0.954-0.143c0.342-0.036,0.69-0.084,1.019-0.105
				c0.661-0.048,1.347-0.075,2.053-0.054c0.718,0.02,1.203,0.058,1.782,0.095c0.537,0.038,1.234,0.093,1.886,0.166l0.946,0.111
				c0.286,0.034,0.549,0.065,0.828,0.098c0.544,0.062,1.145,0.125,1.737,0.179c0,0,0.448,0.043,0.895,0.074
				c0.223,0.016,0.446,0.031,0.614,0.043c0.167,0.008,0.278,0.014,0.278,0.014s0.225,0.011,0.45,0.021
				c0.225,0.014,0.449,0.013,0.449,0.013c0.3,0.002,0.537,0.015,0.784,0.003c0.243-0.009,0.456-0.016,0.699-0.032
				c0.237-0.026,0.561-0.052,0.908-0.094c0.346-0.052,0.688-0.083,0.999-0.139c0.314-0.053,0.61-0.113,0.889-0.182
				c0.563-0.134,1.182-0.37,1.496-0.562c0.315-0.187,0.534-0.384,0.696-0.68c0.34-0.419,0.451-0.949,0.086-1.405L159.435,264.082z"
				/>
		</g>
		<g>
			<path fill="#FFFFFF" stroke="#FFFFFF" stroke-miterlimit="10" d="M160.079,264.249c-0.226,0.024-0.449,0.054-0.64,0.092
				c-0.983,0.093-2.028,0.132-3.105,0.153c-0.217,0-0.434,0.001-0.647,0.001c-0.289-0.022-0.538-0.037-0.838-0.053
				c-0.468-0.025-0.913-0.035-1.3-0.037c-0.196-0.002-0.412,0.005-0.707,0.01c-0.293,0.003-0.615,0.005-0.912,0.008
				c-0.294-0.001-0.6-0.003-0.851-0.004l-0.754,0.004c0,0-0.381,0.001-0.761,0.012c-0.38,0.008-0.76,0.019-0.76,0.019
				c-0.509,0.021-1.014,0.037-1.564,0.071c-0.271,0.014-0.553,0.026-0.815,0.045l-0.719,0.047c-0.461,0.044-0.897,0.082-1.456,0.156
				c-0.265,0.033-0.547,0.067-0.816,0.1c-0.268,0.038-0.522,0.073-0.733,0.103c-0.433,0.06-0.881,0.147-1.34,0.241
				c-0.463,0.097-0.839,0.188-1.334,0.318c-0.507,0.135-1.036,0.276-1.514,0.403c0,0-0.357,0.098-0.715,0.195
				c-0.356,0.101-0.712,0.203-0.712,0.203l-1.381,0.408c-0.468,0.142-0.983,0.297-1.482,0.439c-0.492,0.142-0.889,0.257-1.348,0.39
				c-0.443,0.133-0.955,0.283-1.446,0.419c-0.506,0.134-0.948,0.252-1.418,0.377c-0.474,0.125-0.941,0.239-1.384,0.349l-0.702,0.173
				c-0.257,0.06-0.531,0.123-0.799,0.176c-0.541,0.11-1.051,0.197-1.581,0.274c0,0-0.387,0.052-0.775,0.099
				c-0.195,0.02-0.39,0.041-0.536,0.056c-0.146,0.016-0.245,0.022-0.245,0.022c-0.499,0.043-1.035,0.082-1.505,0.098
				c-0.478,0.02-0.924,0.039-1.532,0.04c-0.583-0.009-1.148-0.039-1.677-0.1c-0.538-0.05-1.094-0.151-1.572-0.246
				c-0.476-0.104-0.958-0.209-1.433-0.35c-0.477-0.132-0.923-0.286-1.38-0.46c-0.237-0.094-0.469-0.194-0.69-0.3
				c-0.111-0.095-0.226-0.191-0.345-0.286c0.188,0.073,0.375,0.145,0.561,0.218c0.193,0.064,0.382,0.13,0.575,0.189
				c0.462,0.13,0.944,0.267,1.435,0.367c0.483,0.107,0.989,0.193,1.502,0.273c0.516,0.074,0.969,0.125,1.459,0.154
				c0.494,0.035,0.966,0.042,1.414,0.033c0.424-0.012,0.993-0.044,1.537-0.083c0.551-0.037,1.036-0.082,1.553-0.14
				c0,0,0.37-0.043,0.74-0.09c0.184-0.027,0.368-0.053,0.506-0.073c0.137-0.022,0.229-0.036,0.229-0.036
				c0.472-0.077,0.958-0.165,1.398-0.262c0,0,0.167-0.034,0.331-0.074c0.165-0.039,0.33-0.077,0.33-0.077
				c0.225-0.056,0.48-0.12,0.736-0.184c0.514-0.133,1.008-0.258,1.485-0.388c0.482-0.13,0.989-0.269,1.433-0.395
				c0.455-0.131,0.881-0.259,1.371-0.411c0.48-0.144,1.02-0.306,1.466-0.439c0.44-0.134,0.86-0.262,1.325-0.404l1.43-0.431
				c0,0,0.351-0.102,0.702-0.204c0.354-0.099,0.708-0.198,0.708-0.198c0.473-0.129,0.894-0.245,1.337-0.366
				c0.452-0.127,1.043-0.274,1.562-0.386c0.524-0.111,1.068-0.219,1.645-0.298c0.584-0.089,0.991-0.129,1.471-0.192
				c0.447-0.058,1.033-0.121,1.592-0.167l0.816-0.055c0.248-0.013,0.477-0.025,0.718-0.037c0.472-0.03,0.995-0.048,1.511-0.07
				c0,0,0.391-0.012,0.781-0.021c0.391-0.012,0.781-0.014,0.781-0.014l0.79-0.005c0.264,0.001,0.471,0.001,0.691,0.002
				c0.215-0.003,0.403-0.006,0.621-0.009c0.214-0.004,0.506-0.009,0.822-0.014c0.64-0.001,1.229,0.016,1.788,0.045
				c0.561,0.022,1.249,0.081,1.676,0.117c0.417,0.035,0.804,0.06,1.288,0.087c0.725,0.117,1.433,0.241,2.131,0.37L160.079,264.249z"
				/>
		</g>
		<g>
			<path fill="#FFFFFF" stroke="#FFFFFF" stroke-miterlimit="10" d="M128.223,268.627c0.128-0.064,0.25-0.129,0.349-0.192
				c0.558-0.267,1.165-0.53,1.798-0.799c0.13-0.052,0.259-0.103,0.387-0.154c0.184-0.059,0.34-0.111,0.526-0.176
				c0.291-0.101,0.566-0.201,0.797-0.295c0.116-0.048,0.246-0.101,0.422-0.174c0.177-0.072,0.37-0.15,0.549-0.222
				c0.18-0.069,0.368-0.14,0.521-0.198l0.465-0.175l0.94-0.356c0.318-0.118,0.632-0.235,0.977-0.362
				c0.17-0.062,0.349-0.125,0.518-0.182l0.46-0.158c0.297-0.103,0.576-0.2,0.94-0.326c0.345-0.118,0.746-0.239,1.027-0.327
				c0.29-0.089,0.596-0.183,0.91-0.279c0.318-0.097,0.58-0.176,0.929-0.283c0.359-0.106,0.741-0.207,1.087-0.296
				c0,0,0.263-0.061,0.525-0.122c0.131-0.031,0.263-0.061,0.361-0.084c0.098-0.023,0.166-0.035,0.166-0.035s0.259-0.052,0.519-0.104
				c0.13-0.026,0.259-0.052,0.356-0.072c0.097-0.021,0.163-0.03,0.163-0.03c0.358-0.059,0.747-0.131,1.127-0.18
				c0.375-0.047,0.678-0.085,1.027-0.128c0.341-0.035,0.731-0.083,1.104-0.112c0.383-0.026,0.716-0.054,1.071-0.074
				c0.358-0.018,0.707-0.035,1.038-0.051l0.524-0.018c0.19-0.006,0.393-0.016,0.588-0.015c0.396,0.004,0.763,0.002,1.14,0.016
				c0,0,0.274,0.013,0.548,0.026c0.137,0.007,0.274,0.013,0.376,0.018c0.102,0.007,0.17,0.012,0.17,0.012
				c0.348,0.027,0.718,0.055,1.041,0.08c0.329,0.029,0.635,0.056,1.051,0.094c0.396,0.049,0.78,0.095,1.139,0.155
				c0.362,0.063,0.746,0.129,1.073,0.202c0.328,0.075,0.665,0.139,1.004,0.22c0.335,0.084,0.667,0.155,1.008,0.245l0.531,0.146
				l0.313,0.146c-0.293-0.06-0.584-0.119-0.874-0.178c-0.346-0.063-0.705-0.128-1.054-0.192c-0.353-0.059-0.713-0.12-1.076-0.181
				c-0.365-0.06-0.687-0.1-1.028-0.148c-0.347-0.045-0.68-0.073-0.996-0.101c-0.299-0.026-0.707-0.038-1.094-0.069
				c-0.393-0.026-0.743-0.04-1.114-0.062c0,0-0.066-0.006-0.167-0.009c-0.1-0.003-0.234-0.007-0.367-0.012
				c-0.267-0.009-0.534-0.017-0.534-0.017c-0.345-0.006-0.702-0.003-1.029-0.002c0,0-0.124-0.001-0.247,0.006
				c-0.123,0.005-0.247,0.01-0.247,0.01c-0.169,0.007-0.362,0.015-0.555,0.023c-0.388,0.016-0.758,0.043-1.12,0.061
				c-0.363,0.028-0.745,0.057-1.081,0.082c-0.343,0.032-0.664,0.073-1.036,0.114c-0.359,0.048-0.763,0.101-1.097,0.146
				c-0.326,0.05-0.636,0.106-0.978,0.165c0,0-0.066,0.009-0.163,0.03c-0.097,0.02-0.226,0.047-0.355,0.073
				c-0.259,0.053-0.517,0.106-0.517,0.106s-0.249,0.057-0.497,0.116c-0.248,0.059-0.496,0.118-0.496,0.118
				c-0.326,0.085-0.614,0.166-0.914,0.252c-0.305,0.094-0.695,0.214-1.03,0.317c-0.338,0.106-0.685,0.215-1.047,0.328
				c-0.367,0.116-0.623,0.191-0.919,0.294c-0.275,0.096-0.633,0.221-0.974,0.341l-0.498,0.172c-0.151,0.054-0.289,0.103-0.436,0.155
				c-0.284,0.106-0.598,0.223-0.909,0.339l-0.937,0.356l-0.474,0.18c-0.159,0.061-0.283,0.108-0.415,0.159
				c-0.127,0.052-0.238,0.097-0.367,0.149c-0.126,0.052-0.298,0.124-0.483,0.202c-0.38,0.154-0.739,0.286-1.087,0.406
				c-0.344,0.124-0.786,0.26-1.061,0.343c-0.268,0.085-0.513,0.163-0.821,0.261c-0.494,0.115-0.993,0.206-1.481,0.298
				L128.223,268.627z"/>
		</g>
		<g>
			<path fill="#FFFFFF" stroke="#FFFFFF" stroke-miterlimit="10" d="M118.874,269.418c0.198-0.008,0.391-0.019,0.555-0.037
				c0.423-0.007,0.86-0.041,1.302-0.053c0.444-0.034,0.896-0.049,1.353-0.093c0.186-0.014,0.37-0.022,0.551-0.039
				c0.25-0.012,0.464-0.022,0.722-0.035c0.401-0.029,0.783-0.065,1.111-0.106c0.164-0.024,0.348-0.051,0.597-0.087
				c0.247-0.033,0.517-0.082,0.768-0.118c0.248-0.036,0.507-0.077,0.718-0.112c0,0,0.159-0.026,0.318-0.052
				c0.159-0.025,0.318-0.054,0.318-0.054s0.32-0.059,0.639-0.118c0.319-0.06,0.636-0.126,0.636-0.126
				c0.428-0.083,0.847-0.179,1.309-0.276c0.226-0.05,0.462-0.102,0.682-0.15l0.602-0.135c0.388-0.088,0.749-0.181,1.222-0.298
				c0.446-0.11,0.953-0.234,1.311-0.322c0.366-0.094,0.752-0.193,1.148-0.295c0.398-0.108,0.726-0.196,1.162-0.314
				c0.446-0.121,0.915-0.244,1.344-0.349l1.284-0.309c0,0,0.315-0.071,0.629-0.143c0.314-0.073,0.632-0.138,0.632-0.138
				c0.43-0.095,0.907-0.187,1.366-0.271c0.455-0.077,0.822-0.142,1.249-0.209c0.414-0.067,0.891-0.139,1.349-0.193
				c0.467-0.06,0.88-0.097,1.316-0.14c0.442-0.035,0.872-0.074,1.283-0.093c0,0,0.162-0.01,0.324-0.021
				c0.162-0.013,0.325-0.015,0.325-0.015c0.237-0.007,0.488-0.014,0.731-0.022c0.491-0.002,0.946,0.004,1.411,0.023
				c0,0,0.338,0.016,0.675,0.032c0.336,0.019,0.673,0.037,0.673,0.037c0.428,0.025,0.883,0.052,1.281,0.075
				c0.405,0.024,0.782,0.034,1.294,0.053c0.49,0.016,0.964,0.033,1.413,0.043c0.454,0.006,0.935,0.013,1.354,0.004
				c0.42-0.011,0.847-0.03,1.279-0.077c0.217-0.017,0.428-0.045,0.638-0.079c0.212-0.03,0.425-0.063,0.636-0.112
				c0.223-0.047,0.449-0.09,0.663-0.152c0.148-0.019,0.302-0.041,0.461-0.065c-0.341,0.111-0.676,0.232-1.031,0.316
				c-0.104,0.027-0.208,0.055-0.314,0.083l-0.329,0.066c-0.22,0.046-0.445,0.087-0.671,0.114c-0.446,0.068-0.913,0.108-1.385,0.133
				c-0.473,0.025-0.885,0.031-1.325,0.037c-0.445,0.002-0.866-0.001-1.267-0.004c-0.379-0.001-0.89-0.006-1.38-0.023
				c-0.495-0.02-0.932-0.038-1.397-0.057c0,0-0.333-0.014-0.666-0.028c-0.333-0.013-0.664-0.022-0.664-0.022
				c-0.428-0.012-0.869-0.014-1.274-0.01l-0.609,0.022c-0.209,0.006-0.446,0.019-0.683,0.037c-0.479,0.026-0.934,0.068-1.378,0.106
				c-0.446,0.049-0.918,0.092-1.327,0.151c-0.422,0.053-0.816,0.115-1.27,0.191c-0.44,0.074-0.936,0.159-1.343,0.236
				c-0.401,0.075-0.782,0.153-1.201,0.246c0,0-0.322,0.068-0.64,0.143c-0.319,0.074-0.638,0.147-0.638,0.147l-1.234,0.302
				c-0.409,0.102-0.772,0.198-1.149,0.303c-0.388,0.106-0.885,0.242-1.312,0.359c-0.434,0.116-0.881,0.234-1.349,0.35
				c-0.478,0.117-0.807,0.198-1.198,0.294c-0.364,0.091-0.837,0.212-1.294,0.316l-0.666,0.149c-0.203,0.045-0.39,0.086-0.587,0.129
				c-0.389,0.081-0.815,0.18-1.244,0.263c0,0-0.324,0.065-0.647,0.129c-0.326,0.06-0.652,0.121-0.652,0.121
				s-0.165,0.031-0.331,0.057c-0.166,0.027-0.333,0.055-0.333,0.055c-0.223,0.036-0.397,0.067-0.583,0.093
				c-0.182,0.029-0.341,0.055-0.525,0.085c-0.18,0.033-0.427,0.069-0.698,0.107c-0.546,0.08-1.06,0.121-1.549,0.157
				c-0.246,0.015-0.521,0.029-0.782,0.039c-0.261,0.003-0.509,0.005-0.699,0.007c-0.37,0.006-0.714-0.007-1.142-0.005
				c-0.321-0.035-0.64-0.07-0.96-0.105l-0.928-0.145L118.874,269.418z"/>
		</g>
		<g>
			<path fill="#FFFFFF" stroke="#FFFFFF" stroke-miterlimit="10" d="M158.807,264.541c-0.008,0.118-0.031,0.238-0.064,0.343
				c-0.126,0.261-0.401,0.51-0.755,0.704c-0.351,0.2-0.771,0.352-1.216,0.474c-0.182,0.047-0.365,0.087-0.548,0.123
				c-0.257,0.036-0.473,0.055-0.733,0.084c-0.405,0.049-0.793,0.073-1.128,0.107c-0.169,0.014-0.358,0.03-0.614,0.051
				c-0.254,0.015-0.536,0.031-0.796,0.04c-0.257,0.004-0.525,0.008-0.744,0.011l-0.659-0.002c0,0-0.332-0.005-0.664-0.01
				c-0.331-0.007-0.662-0.015-0.662-0.015c-0.443-0.014-0.881-0.027-1.361-0.042c-0.235-0.009-0.479-0.019-0.708-0.028l-0.624-0.024
				c-0.403-0.014-0.781-0.019-1.274-0.024c-0.465-0.004-0.989-0.006-1.36-0.002c-0.379,0.007-0.779,0.022-1.188,0.05
				c-0.414,0.027-0.753,0.059-1.201,0.112c-0.459,0.052-0.937,0.115-1.369,0.173c0,0-0.322,0.047-0.644,0.094
				c-0.321,0.052-0.641,0.104-0.641,0.104s-0.311,0.052-0.621,0.109c-0.31,0.058-0.619,0.115-0.619,0.115
				c-0.42,0.083-0.879,0.174-1.321,0.261c-0.434,0.087-0.785,0.16-1.187,0.251c-0.39,0.089-0.837,0.191-1.263,0.287
				c-0.435,0.1-0.815,0.187-1.219,0.28c-0.406,0.096-0.801,0.19-1.176,0.278l-0.592,0.144c-0.215,0.052-0.444,0.108-0.667,0.157
				c-0.45,0.102-0.872,0.19-1.307,0.279c0,0-0.318,0.061-0.636,0.121c-0.32,0.058-0.639,0.115-0.639,0.115
				c-0.408,0.073-0.846,0.144-1.229,0.206c-0.391,0.061-0.753,0.124-1.251,0.193c-0.479,0.064-0.946,0.116-1.393,0.15
				c-0.45,0.042-0.933,0.06-1.352,0.072c-0.421,0.013-0.848,0.017-1.287,0.015c-0.436-0.009-0.86-0.013-1.306-0.041
				c-0.233-0.009-0.466-0.026-0.696-0.05c-0.146-0.031-0.292-0.063-0.44-0.094c0.374,0.011,0.741,0.035,1.108,0.03
				c0.43,0.004,0.883-0.008,1.325-0.018c0.22-0.009,0.442-0.019,0.666-0.028c0.224-0.013,0.45-0.027,0.676-0.04
				c0.454-0.032,0.848-0.062,1.265-0.111c0.424-0.043,0.821-0.102,1.199-0.16c0.355-0.063,0.834-0.148,1.29-0.229
				c0.464-0.084,0.876-0.157,1.31-0.244c0,0,0.313-0.061,0.625-0.122c0.312-0.064,0.623-0.128,0.623-0.128
				c0.4-0.087,0.814-0.176,1.191-0.267l0.568-0.138c0.194-0.048,0.415-0.104,0.637-0.159c0.449-0.109,0.877-0.213,1.295-0.315
				c0.424-0.1,0.87-0.205,1.261-0.297c0.403-0.094,0.783-0.183,1.222-0.285c0.427-0.099,0.913-0.202,1.314-0.285
				c0.397-0.08,0.777-0.157,1.196-0.242c0,0,0.323-0.061,0.646-0.123c0.323-0.061,0.65-0.116,0.65-0.116s0.318-0.053,0.636-0.105
				c0.32-0.048,0.64-0.096,0.64-0.096c0.428-0.057,0.808-0.113,1.21-0.16c0.41-0.055,0.942-0.108,1.403-0.14
				c0.465-0.033,0.945-0.055,1.443-0.061c0.507-0.004,0.853,0.001,1.266,0.004c0.384,0.004,0.884,0.009,1.357,0.026l0.688,0.026
				c0.208,0.008,0.401,0.015,0.604,0.023c0.396,0.012,0.836,0.025,1.27,0.038c0,0,0.327,0.007,0.654,0.014
				c0.327,0.005,0.653,0.009,0.653,0.009l0.659,0.002c0.22-0.003,0.393-0.006,0.576-0.009c0.18-0.003,0.336-0.012,0.515-0.023
				c0.177-0.011,0.417-0.025,0.677-0.049c0.263-0.019,0.515-0.038,0.758-0.062c0.244-0.019,0.478-0.042,0.705-0.07
				c0.464-0.043,0.996-0.124,1.324-0.197c0.316-0.07,0.601-0.154,0.911-0.29c0.507-0.169,0.939-0.426,1.136-0.787L158.807,264.541z"
				/>
		</g>
		<g>
			<path fill="#FFFFFF" stroke="#FFFFFF" stroke-miterlimit="10" d="M158.662,264.361c0.049,0.043,0.11,0.085,0.163,0.125
				c0.197,0.214,0.253,0.505,0.173,0.789c-0.023,0.056-0.041,0.114-0.071,0.167c-0.055,0.069-0.108,0.126-0.17,0.195
				c-0.1,0.106-0.202,0.203-0.293,0.287c-0.047,0.042-0.095,0.091-0.171,0.152c-0.073,0.062-0.166,0.125-0.257,0.179
				c-0.09,0.054-0.191,0.103-0.274,0.141c0,0-0.064,0.028-0.127,0.055c-0.063,0.028-0.129,0.053-0.129,0.053
				s-0.131,0.053-0.267,0.099c-0.136,0.046-0.274,0.087-0.274,0.087c-0.186,0.055-0.373,0.101-0.58,0.144
				c-0.102,0.021-0.209,0.04-0.309,0.055l-0.274,0.04c-0.176,0.025-0.341,0.05-0.556,0.076c-0.203,0.025-0.433,0.041-0.596,0.051
				c-0.167,0.012-0.341,0.028-0.521,0.046c-0.182,0.014-0.331,0.029-0.529,0.051c-0.202,0.024-0.417,0.034-0.61,0.045
				c0,0-0.145,0.007-0.289,0.015c-0.145,0.004-0.29,0.009-0.29,0.009s-0.141,0.004-0.282,0.008
				c-0.141,0.005-0.282,0.006-0.282,0.006c-0.192,0.003-0.402,0.004-0.603,0c-0.198-0.008-0.358-0.013-0.543-0.015
				c-0.179,0-0.385-0.01-0.58-0.017c-0.2-0.007-0.374-0.018-0.558-0.029c-0.186-0.009-0.367-0.018-0.539-0.027l-0.272-0.012
				c-0.099-0.005-0.204-0.01-0.305-0.016c-0.204-0.016-0.393-0.035-0.587-0.056c0,0-0.141-0.014-0.281-0.035
				c-0.14-0.019-0.28-0.038-0.28-0.038c-0.179-0.025-0.368-0.051-0.533-0.074c-0.168-0.026-0.328-0.037-0.542-0.066
				c-0.205-0.029-0.401-0.065-0.585-0.1c-0.187-0.036-0.38-0.086-0.548-0.128c-0.172-0.043-0.34-0.085-0.516-0.128
				c-0.177-0.044-0.345-0.085-0.523-0.129c-0.092-0.024-0.184-0.049-0.278-0.074c-0.049-0.034-0.1-0.067-0.153-0.1
				c0.157,0.021,0.311,0.042,0.468,0.062c0.189,0.025,0.377,0.05,0.559,0.074l0.563,0.085c0.19,0.03,0.355,0.056,0.533,0.08
				c0.181,0.022,0.352,0.041,0.518,0.054c0.156,0.013,0.369,0.019,0.57,0.039c0.205,0.02,0.384,0.036,0.574,0.055
				c0,0,0.137,0.014,0.274,0.028c0.137,0.015,0.275,0.025,0.275,0.025c0.178,0.013,0.361,0.026,0.531,0.039l0.257,0.009
				c0.088,0.003,0.189,0.006,0.288,0.009c0.203,0.008,0.395,0.015,0.582,0.022c0.189,0.009,0.388,0.017,0.563,0.022
				c0.18,0.004,0.349,0.011,0.545,0.009c0.19-0.001,0.404,0.005,0.581,0.008c0.174,0.001,0.34-0.003,0.524-0.006
				c0,0,0.141-0.001,0.281-0.008c0.14-0.005,0.281-0.011,0.281-0.011s0.137-0.005,0.273-0.011c0.136-0.008,0.272-0.016,0.272-0.016
				c0.181-0.012,0.342-0.021,0.51-0.041c0.171-0.021,0.391-0.045,0.581-0.062c0.191-0.02,0.387-0.041,0.593-0.055
				c0.209-0.014,0.352-0.026,0.52-0.046c0.156-0.019,0.356-0.05,0.546-0.077l0.275-0.042c0.083-0.013,0.158-0.028,0.238-0.043
				c0.154-0.033,0.322-0.073,0.48-0.121c0,0,0.12-0.036,0.237-0.075c0.116-0.04,0.227-0.084,0.227-0.084s0.058-0.021,0.111-0.046
				c0.054-0.024,0.109-0.048,0.109-0.048c0.069-0.034,0.128-0.06,0.178-0.092c0.052-0.03,0.096-0.058,0.14-0.094
				c0.047-0.033,0.1-0.084,0.163-0.137c0.121-0.108,0.226-0.209,0.317-0.308c0.092-0.099,0.192-0.226,0.243-0.308
				c0.053-0.08,0.078-0.158,0.098-0.256c0.092-0.143,0.152-0.3,0.161-0.468L158.662,264.361z"/>
		</g>
	</g>
</g>
</svg>
